<svg width="27" height="27" viewBox="0 0 27 27" fill="none" xmlns="http://www.w3.org/2000/svg">
<path d="M10.53 8.57249C11.286 8.57249 11.8935 7.96499 11.8935 7.20899C11.8935 6.45299 11.286 5.84549 10.53 5.84549C9.774 5.84549 9.1665 6.45299 9.1665 7.20899C9.1665 7.96499 9.774 8.57249 10.53 8.57249Z" fill="#EDF6FF"/>
<path fill-rule="evenodd" clip-rule="evenodd" d="M13.2705 11.5425C13.2705 10.0845 12.042 9.03149 10.53 9.03149C9.018 9.03149 7.7895 10.0845 7.7895 11.5425V12.231C7.7895 12.3525 7.8435 12.474 7.9245 12.555C8.0055 12.636 8.127 12.69 8.2485 12.69H12.8115C12.933 12.69 13.0545 12.636 13.1355 12.555C13.2165 12.474 13.2705 12.3525 13.2705 12.231V11.5425ZM7.7625 15.525C7.7625 15.2565 7.86917 14.9989 8.05905 14.809C8.24893 14.6192 8.50647 14.5125 8.775 14.5125H18.225C18.4935 14.5125 18.7511 14.6192 18.9409 14.809C19.1308 14.9989 19.2375 15.2565 19.2375 15.525C19.2375 15.7935 19.1308 16.0511 18.9409 16.2409C18.7511 16.4308 18.4935 16.5375 18.225 16.5375H8.775C8.50647 16.5375 8.24893 16.4308 8.05905 16.2409C7.86917 16.0511 7.7625 15.7935 7.7625 15.525ZM7.7625 19.575C7.7625 19.3065 7.86917 19.0489 8.05905 18.859C8.24893 18.6692 8.50647 18.5625 8.775 18.5625H18.225C18.4935 18.5625 18.7511 18.6692 18.9409 18.859C19.1308 19.0489 19.2375 19.3065 19.2375 19.575C19.2375 19.8435 19.1308 20.1011 18.9409 20.2909C18.7511 20.4808 18.4935 20.5875 18.225 20.5875H8.775C8.50647 20.5875 8.24893 20.4808 8.05905 20.2909C7.86917 20.1011 7.7625 19.8435 7.7625 19.575Z" fill="#EDF6FF"/>
<path fill-rule="evenodd" clip-rule="evenodd" d="M3.375 3.37499C3.375 1.88729 4.5873 0.674988 6.075 0.674988H15.1065C15.8652 0.674988 16.5807 0.996288 17.0842 1.52684L17.0924 1.53629L22.9135 7.88399C23.3982 8.40104 23.625 9.07739 23.625 9.71999V23.625C23.625 25.1127 22.4127 26.325 20.925 26.325H6.075C4.5873 26.325 3.375 25.1127 3.375 23.625V3.37499ZM15.1052 3.37499H6.075V23.625H20.925V9.70919L15.1254 3.38444L15.1214 3.38309C15.1164 3.37952 15.111 3.37678 15.1052 3.37499Z" fill="#EDF6FF"/>
<path fill-rule="evenodd" clip-rule="evenodd" d="M15.1065 0.674988C15.4645 0.674988 15.8079 0.81722 16.0611 1.07039C16.3143 1.32357 16.4565 1.66695 16.4565 2.02499V8.36999H22.275C22.4523 8.36999 22.6278 8.40491 22.7916 8.47275C22.9554 8.54059 23.1042 8.64003 23.2296 8.76539C23.355 8.89075 23.4544 9.03958 23.5222 9.20337C23.5901 9.36715 23.625 9.5427 23.625 9.71999C23.625 9.89727 23.5901 10.0728 23.5222 10.2366C23.4544 10.4004 23.355 10.5492 23.2296 10.6746C23.1042 10.7999 22.9554 10.8994 22.7916 10.9672C22.6278 11.0351 22.4523 11.07 22.275 11.07H15.1065C14.7485 11.07 14.4051 10.9278 14.1519 10.6746C13.8987 10.4214 13.7565 10.078 13.7565 9.71999V2.02499C13.7565 1.66695 13.8987 1.32357 14.1519 1.07039C14.4051 0.81722 14.7485 0.674988 15.1065 0.674988Z" fill="#EDF6FF"/>
</svg>
