<svg width="60" height="60" viewBox="0 0 60 60" fill="none" xmlns="http://www.w3.org/2000/svg">
<rect width="60" height="60" rx="10" fill="#424242"/>
<path d="M20.875 7.58334H40.125C47.4583 7.58334 53.4167 13.5417 53.4167 20.875V40.125C53.4167 43.6502 52.0163 47.031 49.5236 49.5236C47.0309 52.0163 43.6502 53.4167 40.125 53.4167H20.875C13.5417 53.4167 7.58333 47.4583 7.58333 40.125V20.875C7.58333 17.3498 8.9837 13.969 11.4764 11.4764C13.969 8.9837 17.3498 7.58334 20.875 7.58334ZM20.4167 12.1667C18.2286 12.1667 16.1302 13.0359 14.583 14.583C13.0359 16.1302 12.1667 18.2286 12.1667 20.4167V40.5833C12.1667 45.1437 15.8562 48.8333 20.4167 48.8333H40.5833C42.7714 48.8333 44.8698 47.9641 46.417 46.417C47.9641 44.8698 48.8333 42.7714 48.8333 40.5833V20.4167C48.8333 15.8563 45.1437 12.1667 40.5833 12.1667H20.4167ZM42.5312 15.6042C43.291 15.6042 44.0196 15.906 44.5568 16.4432C45.094 16.9804 45.3958 17.709 45.3958 18.4688C45.3958 19.2285 45.094 19.9571 44.5568 20.4943C44.0196 21.0315 43.291 21.3333 42.5312 21.3333C41.7715 21.3333 41.0429 21.0315 40.5057 20.4943C39.9685 19.9571 39.6667 19.2285 39.6667 18.4688C39.6667 17.709 39.9685 16.9804 40.5057 16.4432C41.0429 15.906 41.7715 15.6042 42.5312 15.6042ZM30.5 19.0417C33.5389 19.0417 36.4534 20.2489 38.6023 22.3977C40.7511 24.5466 41.9583 27.4611 41.9583 30.5C41.9583 33.5389 40.7511 36.4534 38.6023 38.6023C36.4534 40.7511 33.5389 41.9583 30.5 41.9583C27.4611 41.9583 24.5466 40.7511 22.3977 38.6023C20.2489 36.4534 19.0417 33.5389 19.0417 30.5C19.0417 27.4611 20.2489 24.5466 22.3977 22.3977C24.5466 20.2489 27.4611 19.0417 30.5 19.0417ZM30.5 23.625C28.6766 23.625 26.9279 24.3493 25.6386 25.6386C24.3493 26.928 23.625 28.6766 23.625 30.5C23.625 32.3234 24.3493 34.072 25.6386 35.3614C26.9279 36.6507 28.6766 37.375 30.5 37.375C32.3234 37.375 34.072 36.6507 35.3614 35.3614C36.6507 34.072 37.375 32.3234 37.375 30.5C37.375 28.6766 36.6507 26.928 35.3614 25.6386C34.072 24.3493 32.3234 23.625 30.5 23.625Z" fill="#EDF6FF"/>
</svg>
