<svg width="60" height="60" viewBox="0 0 60 60" fill="none" xmlns="http://www.w3.org/2000/svg">
<rect width="60" height="60" rx="10" fill="#424242"/>
<path d="M54.4708 16.75C52.7062 17.5521 50.8042 18.0792 48.8333 18.3312C50.85 17.1167 52.4083 15.1917 53.1417 12.8771C51.2396 14.0229 49.1312 14.825 46.9083 15.2833C45.0979 13.3125 42.5542 12.1667 39.6667 12.1667C34.2812 12.1667 29.8812 16.5667 29.8812 21.9979C29.8812 22.7771 29.9729 23.5333 30.1333 24.2437C21.975 23.8312 14.7104 19.9125 9.87499 13.9771C9.02708 15.4208 8.54583 17.1167 8.54583 18.9042C8.54583 22.3187 10.2646 25.3437 12.9229 27.0625C11.2958 27.0625 9.78333 26.6042 8.45416 25.9167V25.9854C8.45416 30.7521 11.8458 34.7396 16.3375 35.6333C14.8954 36.028 13.3815 36.0829 11.9146 35.7937C12.537 37.7473 13.756 39.4568 15.4002 40.6817C17.0445 41.9067 19.0312 42.5855 21.0812 42.6229C17.6062 45.3739 13.2987 46.8609 8.86666 46.8396C8.08749 46.8396 7.30833 46.7937 6.52916 46.7021C10.8833 49.4979 16.0625 51.125 21.6083 51.125C39.6667 51.125 49.5896 36.1375 49.5896 23.1437C49.5896 22.7083 49.5896 22.2958 49.5667 21.8604C51.4917 20.4854 53.1417 18.7437 54.4708 16.75Z" fill="#EDF6FF"/>
</svg>
