<svg width="46" height="74" viewBox="0 0 46 74" fill="none" xmlns="http://www.w3.org/2000/svg">
<path d="M10.54 63.54C8.41 63.54 6.445 63.15 4.645 62.37C2.875 61.56 1.42 60.42 0.28 58.95L4.33 54.09C5.2 55.23 6.115 56.1 7.075 56.7C8.035 57.27 9.07 57.555 10.18 57.555C13.15 57.555 14.635 55.815 14.635 52.335V37.35H3.565V31.5H21.88V51.93C21.88 55.83 20.92 58.74 19 60.66C17.08 62.58 14.26 63.54 10.54 63.54Z" fill="#424242"/>
<path d="M27.66 53.66C25.0567 53.66 22.655 53.1833 20.455 52.23C18.2917 51.24 16.5133 49.8467 15.12 48.05L20.07 42.11C21.1333 43.5033 22.2517 44.5667 23.425 45.3C24.5983 45.9967 25.8633 46.345 27.22 46.345C30.85 46.345 32.665 44.2183 32.665 39.965V21.65H19.135V14.5H41.52V39.47C41.52 44.2367 40.3467 47.7933 38 50.14C35.6533 52.4867 32.2067 53.66 27.66 53.66Z" fill="#424242"/>
</svg>
