<svg width="40" height="39" viewBox="0 0 40 39" fill="none" xmlns="http://www.w3.org/2000/svg">
<rect x="0.75" width="39" height="39" rx="10" fill="#EDF6FF"/>
<path d="M20.575 4.9292C18.6189 4.9292 16.6819 5.31449 14.8746 6.06308C13.0674 6.81166 11.4253 7.90888 10.0421 9.29209C7.24855 12.0856 5.67917 15.8744 5.67917 19.825C5.67917 26.409 9.95427 31.9949 15.8679 33.9761C16.6127 34.0952 16.851 33.6335 16.851 33.2313V30.7139C12.7249 31.6076 11.846 28.7178 11.846 28.7178C11.1608 26.9899 10.1926 26.5282 10.1926 26.5282C8.83708 25.6046 10.2969 25.6344 10.2969 25.6344C11.7865 25.7387 12.5759 27.1687 12.5759 27.1687C13.8719 29.4328 16.0616 28.7625 16.9106 28.405C17.0447 27.4368 17.432 26.7814 17.8491 26.409C14.5422 26.0366 11.0715 24.7556 11.0715 19.0802C11.0715 17.4268 11.6375 16.1011 12.6057 15.0435C12.4568 14.6711 11.9354 13.1219 12.7547 11.111C12.7547 11.111 14.0059 10.7088 16.851 12.6303C18.0278 12.3026 19.3089 12.1388 20.575 12.1388C21.8411 12.1388 23.1222 12.3026 24.299 12.6303C27.1441 10.7088 28.3953 11.111 28.3953 11.111C29.2146 13.1219 28.6932 14.6711 28.5443 15.0435C29.5125 16.1011 30.0785 17.4268 30.0785 19.0802C30.0785 24.7704 26.5929 26.0217 23.2711 26.3941C23.8074 26.8559 24.299 27.7645 24.299 29.1498V33.2313C24.299 33.6335 24.5373 34.1101 25.297 33.9761C31.2106 31.98 35.4708 26.409 35.4708 19.825C35.4708 17.8689 35.0855 15.9319 34.337 14.1246C33.5884 12.3174 32.4912 10.6753 31.1079 9.29209C29.7247 7.90888 28.0826 6.81166 26.2754 6.06308C24.4681 5.31449 22.5311 4.9292 20.575 4.9292Z" fill="#424242"/>
</svg>
