<svg width="39" height="39" viewBox="0 0 39 39" fill="none" xmlns="http://www.w3.org/2000/svg">
<rect width="39" height="39" rx="10" fill="#EDF6FF"/>
<path d="M29.6021 6.41895C30.3922 6.41895 31.15 6.73282 31.7087 7.29152C32.2674 7.85023 32.5813 8.60799 32.5813 9.39811V30.2523C32.5813 31.0424 32.2674 31.8002 31.7087 32.3589C31.15 32.9176 30.3922 33.2314 29.6021 33.2314H8.74792C7.9578 33.2314 7.20003 32.9176 6.64133 32.3589C6.08263 31.8002 5.76875 31.0424 5.76875 30.2523V9.39811C5.76875 8.60799 6.08263 7.85023 6.64133 7.29152C7.20003 6.73282 7.9578 6.41895 8.74792 6.41895H29.6021ZM28.8573 29.5075V21.6127C28.8573 20.3248 28.3457 19.0896 27.435 18.179C26.5243 17.2683 25.2892 16.7567 24.0013 16.7567C22.7351 16.7567 21.2604 17.5312 20.5454 18.6931V17.0397H16.3895V29.5075H20.5454V22.1638C20.5454 21.0169 21.469 20.0784 22.6159 20.0784C23.169 20.0784 23.6995 20.2981 24.0906 20.6892C24.4816 21.0803 24.7014 21.6108 24.7014 22.1638V29.5075H28.8573ZM11.5483 14.701C12.212 14.701 12.8486 14.4374 13.3179 13.9681C13.7872 13.4988 14.0508 12.8622 14.0508 12.1985C14.0508 10.8132 12.9336 9.68113 11.5483 9.68113C10.8807 9.68113 10.2404 9.94636 9.76827 10.4185C9.29617 10.8906 9.03094 11.5309 9.03094 12.1985C9.03094 13.5838 10.163 14.701 11.5483 14.701ZM13.6189 29.5075V17.0397H9.49271V29.5075H13.6189Z" fill="#424242"/>
</svg>
