<svg width="234" height="213" viewBox="0 0 234 213" fill="none" xmlns="http://www.w3.org/2000/svg">
<g filter="url(#filter0_d_12_108)">
<rect x="8" y="4" width="218" height="197" rx="15" fill="#EDF6FF"/>
</g>
<path d="M83.6695 124.917L76.3647 42.9823H156.635L149.323 124.905L116.451 134.018L83.6695 124.917Z" fill="#1572B6"/>
<path d="M116.501 127.053L143.063 119.688L149.312 49.6813H116.501V127.053Z" fill="#33A9DC"/>
<path d="M116.501 79.3664H129.798L130.717 69.0761H116.501V59.027H141.699L141.458 61.7233L138.988 89.4155H116.501V79.3664Z" fill="white"/>
<path d="M116.56 105.465L116.516 105.478L105.325 102.456L104.609 94.4412H94.5229L95.9303 110.22L116.515 115.933L116.56 115.92V105.465Z" fill="#EBEBEB"/>
<path d="M128.944 88.9905L127.733 102.448L116.525 105.473V115.929L137.126 110.219L137.278 108.521L139.026 88.9905H128.944Z" fill="white"/>
<path d="M116.535 59.027V69.0761H92.2619L92.0606 66.8179L91.6029 61.7233L91.3624 59.027H116.535ZM116.501 79.3678V89.4169H105.45L105.249 87.1588L104.791 82.0641L104.551 79.3678H116.501Z" fill="#EBEBEB"/>
<path d="M77.2606 162.8C77.2606 160.603 77.7513 158.64 78.7326 156.912C79.7353 155.163 81.09 153.808 82.7966 152.848C84.5246 151.867 86.4553 151.376 88.5886 151.376C91.0846 151.376 93.2713 152.016 95.1486 153.296C97.026 154.576 98.338 156.347 99.0846 158.608H93.9326C93.4206 157.541 92.6953 156.741 91.7566 156.208C90.8393 155.675 89.7726 155.408 88.5566 155.408C87.2553 155.408 86.0926 155.717 85.0686 156.336C84.066 156.933 83.2766 157.787 82.7006 158.896C82.146 160.005 81.8686 161.307 81.8686 162.8C81.8686 164.272 82.146 165.573 82.7006 166.704C83.2766 167.813 84.066 168.677 85.0686 169.296C86.0926 169.893 87.2553 170.192 88.5566 170.192C89.7726 170.192 90.8393 169.925 91.7566 169.392C92.6953 168.837 93.4206 168.027 93.9326 166.96H99.0846C98.338 169.243 97.026 171.024 95.1486 172.304C93.2926 173.563 91.106 174.192 88.5886 174.192C86.4553 174.192 84.5246 173.712 82.7966 172.752C81.09 171.771 79.7353 170.416 78.7326 168.688C77.7513 166.96 77.2606 164.997 77.2606 162.8ZM110.623 174.224C109.066 174.224 107.658 173.957 106.399 173.424C105.162 172.891 104.18 172.123 103.455 171.12C102.73 170.117 102.356 168.933 102.335 167.568H107.135C107.199 168.485 107.519 169.211 108.095 169.744C108.692 170.277 109.503 170.544 110.527 170.544C111.572 170.544 112.394 170.299 112.991 169.808C113.588 169.296 113.887 168.635 113.887 167.824C113.887 167.163 113.684 166.619 113.279 166.192C112.874 165.765 112.362 165.435 111.743 165.2C111.146 164.944 110.314 164.667 109.247 164.368C107.796 163.941 106.612 163.525 105.695 163.12C104.799 162.693 104.02 162.064 103.359 161.232C102.719 160.379 102.399 159.248 102.399 157.84C102.399 156.517 102.73 155.365 103.391 154.384C104.052 153.403 104.98 152.656 106.175 152.144C107.37 151.611 108.735 151.344 110.271 151.344C112.575 151.344 114.442 151.909 115.871 153.04C117.322 154.149 118.122 155.707 118.271 157.712H113.343C113.3 156.944 112.97 156.315 112.351 155.824C111.754 155.312 110.954 155.056 109.951 155.056C109.076 155.056 108.372 155.28 107.839 155.728C107.327 156.176 107.071 156.827 107.071 157.68C107.071 158.277 107.263 158.779 107.647 159.184C108.052 159.568 108.543 159.888 109.119 160.144C109.716 160.379 110.548 160.656 111.615 160.976C113.066 161.403 114.25 161.829 115.167 162.256C116.084 162.683 116.874 163.323 117.535 164.176C118.196 165.029 118.527 166.149 118.527 167.536C118.527 168.731 118.218 169.84 117.599 170.864C116.98 171.888 116.074 172.709 114.879 173.328C113.684 173.925 112.266 174.224 110.623 174.224ZM130.123 174.224C128.566 174.224 127.158 173.957 125.899 173.424C124.662 172.891 123.68 172.123 122.955 171.12C122.23 170.117 121.856 168.933 121.835 167.568H126.635C126.699 168.485 127.019 169.211 127.595 169.744C128.192 170.277 129.003 170.544 130.027 170.544C131.072 170.544 131.894 170.299 132.491 169.808C133.088 169.296 133.387 168.635 133.387 167.824C133.387 167.163 133.184 166.619 132.779 166.192C132.374 165.765 131.862 165.435 131.243 165.2C130.646 164.944 129.814 164.667 128.747 164.368C127.296 163.941 126.112 163.525 125.195 163.12C124.299 162.693 123.52 162.064 122.859 161.232C122.219 160.379 121.899 159.248 121.899 157.84C121.899 156.517 122.23 155.365 122.891 154.384C123.552 153.403 124.48 152.656 125.675 152.144C126.87 151.611 128.235 151.344 129.771 151.344C132.075 151.344 133.942 151.909 135.371 153.04C136.822 154.149 137.622 155.707 137.771 157.712H132.843C132.8 156.944 132.47 156.315 131.851 155.824C131.254 155.312 130.454 155.056 129.451 155.056C128.576 155.056 127.872 155.28 127.339 155.728C126.827 156.176 126.571 156.827 126.571 157.68C126.571 158.277 126.763 158.779 127.147 159.184C127.552 159.568 128.043 159.888 128.619 160.144C129.216 160.379 130.048 160.656 131.115 160.976C132.566 161.403 133.75 161.829 134.667 162.256C135.584 162.683 136.374 163.323 137.035 164.176C137.696 165.029 138.027 166.149 138.027 167.536C138.027 168.731 137.718 169.84 137.099 170.864C136.48 171.888 135.574 172.709 134.379 173.328C133.184 173.925 131.766 174.224 130.123 174.224ZM141.463 156.816C141.57 154.683 142.316 153.04 143.703 151.888C145.111 150.715 146.956 150.128 149.239 150.128C150.796 150.128 152.13 150.405 153.239 150.96C154.348 151.493 155.18 152.229 155.735 153.168C156.311 154.085 156.599 155.131 156.599 156.304C156.599 157.648 156.247 158.789 155.543 159.728C154.86 160.645 154.039 161.264 153.079 161.584V161.712C154.316 162.096 155.276 162.779 155.959 163.76C156.663 164.741 157.015 166 157.015 167.536C157.015 168.816 156.716 169.957 156.119 170.96C155.543 171.963 154.679 172.752 153.527 173.328C152.396 173.883 151.031 174.16 149.431 174.16C147.02 174.16 145.058 173.552 143.543 172.336C142.028 171.12 141.228 169.328 141.143 166.96H145.495C145.538 168.005 145.89 168.848 146.551 169.488C147.234 170.107 148.162 170.416 149.335 170.416C150.423 170.416 151.255 170.117 151.831 169.52C152.428 168.901 152.727 168.112 152.727 167.152C152.727 165.872 152.322 164.955 151.511 164.4C150.7 163.845 149.442 163.568 147.735 163.568H146.807V159.888H147.735C150.764 159.888 152.279 158.875 152.279 156.848C152.279 155.931 152.002 155.216 151.447 154.704C150.914 154.192 150.135 153.936 149.111 153.936C148.108 153.936 147.33 154.213 146.775 154.768C146.242 155.301 145.932 155.984 145.847 156.816H141.463Z" fill="#424242"/>
<defs>
<filter id="filter0_d_12_108" x="0" y="0" width="234" height="213" filterUnits="userSpaceOnUse" color-interpolation-filters="sRGB">
<feFlood flood-opacity="0" result="BackgroundImageFix"/>
<feColorMatrix in="SourceAlpha" type="matrix" values="0 0 0 0 0 0 0 0 0 0 0 0 0 0 0 0 0 0 127 0" result="hardAlpha"/>
<feOffset dy="4"/>
<feGaussianBlur stdDeviation="4"/>
<feComposite in2="hardAlpha" operator="out"/>
<feColorMatrix type="matrix" values="0 0 0 0 0 0 0 0 0 0 0 0 0 0 0 0 0 0 0.25 0"/>
<feBlend mode="normal" in2="BackgroundImageFix" result="effect1_dropShadow_12_108"/>
<feBlend mode="normal" in="SourceGraphic" in2="effect1_dropShadow_12_108" result="shape"/>
</filter>
</defs>
</svg>
