<svg width="234" height="213" viewBox="0 0 234 213" fill="none" xmlns="http://www.w3.org/2000/svg">
<g filter="url(#filter0_d_12_171)">
<rect x="8" y="4" width="218" height="197" rx="15" fill="#EDF6FF"/>
</g>
<path d="M79.8225 158.384C79.3105 157.445 78.6065 156.731 77.7105 156.24C76.8145 155.749 75.7692 155.504 74.5745 155.504C73.2518 155.504 72.0785 155.803 71.0545 156.4C70.0305 156.997 69.2305 157.851 68.6545 158.96C68.0785 160.069 67.7905 161.349 67.7905 162.8C67.7905 164.293 68.0785 165.595 68.6545 166.704C69.2518 167.813 70.0732 168.667 71.1185 169.264C72.1638 169.861 73.3798 170.16 74.7665 170.16C76.4732 170.16 77.8705 169.712 78.9585 168.816C80.0465 167.899 80.7612 166.629 81.1025 165.008H73.4225V161.584H85.5185V165.488C85.2198 167.045 84.5798 168.485 83.5985 169.808C82.6172 171.131 81.3478 172.197 79.7905 173.008C78.2545 173.797 76.5265 174.192 74.6065 174.192C72.4518 174.192 70.4998 173.712 68.7505 172.752C67.0225 171.771 65.6572 170.416 64.6545 168.688C63.6732 166.96 63.1825 164.997 63.1825 162.8C63.1825 160.603 63.6732 158.64 64.6545 156.912C65.6572 155.163 67.0225 153.808 68.7505 152.848C70.4998 151.867 72.4412 151.376 74.5745 151.376C77.0918 151.376 79.2785 151.995 81.1345 153.232C82.9905 154.448 84.2705 156.165 84.9745 158.384H79.8225ZM91.105 154.16C90.3157 154.16 89.6543 153.915 89.121 153.424C88.609 152.912 88.353 152.283 88.353 151.536C88.353 150.789 88.609 150.171 89.121 149.68C89.6543 149.168 90.3157 148.912 91.105 148.912C91.8943 148.912 92.545 149.168 93.057 149.68C93.5903 150.171 93.857 150.789 93.857 151.536C93.857 152.283 93.5903 152.912 93.057 153.424C92.545 153.915 91.8943 154.16 91.105 154.16ZM93.313 156.272V174H88.833V156.272H93.313ZM102.955 159.952V168.528C102.955 169.125 103.094 169.563 103.371 169.84C103.67 170.096 104.161 170.224 104.843 170.224H106.923V174H104.107C100.331 174 98.4433 172.165 98.4433 168.496V159.952H96.3313V156.272H98.4433V151.888H102.955V156.272H106.923V159.952H102.955ZM120.13 156.016C121.474 156.016 122.668 156.315 123.714 156.912C124.759 157.488 125.57 158.352 126.146 159.504C126.743 160.635 127.042 162 127.042 163.6V174H122.562V164.208C122.562 162.8 122.21 161.723 121.506 160.976C120.802 160.208 119.842 159.824 118.626 159.824C117.388 159.824 116.407 160.208 115.682 160.976C114.978 161.723 114.626 162.8 114.626 164.208V174H110.146V150.32H114.626V158.48C115.202 157.712 115.97 157.115 116.93 156.688C117.89 156.24 118.956 156.016 120.13 156.016ZM148.038 156.272V174H143.526V171.76C142.95 172.528 142.192 173.136 141.254 173.584C140.336 174.011 139.334 174.224 138.246 174.224C136.859 174.224 135.632 173.936 134.566 173.36C133.499 172.763 132.656 171.899 132.038 170.768C131.44 169.616 131.142 168.251 131.142 166.672V156.272H135.622V166.032C135.622 167.44 135.974 168.528 136.678 169.296C137.382 170.043 138.342 170.416 139.558 170.416C140.795 170.416 141.766 170.043 142.47 169.296C143.174 168.528 143.526 167.44 143.526 166.032V156.272H148.038ZM156.938 158.864C157.514 158.011 158.303 157.317 159.306 156.784C160.33 156.251 161.493 155.984 162.794 155.984C164.309 155.984 165.674 156.357 166.89 157.104C168.127 157.851 169.098 158.917 169.802 160.304C170.527 161.669 170.89 163.259 170.89 165.072C170.89 166.885 170.527 168.496 169.802 169.904C169.098 171.291 168.127 172.368 166.89 173.136C165.674 173.904 164.309 174.288 162.794 174.288C161.471 174.288 160.309 174.032 159.306 173.52C158.325 172.987 157.535 172.304 156.938 171.472V174H152.458V150.32H156.938V158.864ZM166.314 165.072C166.314 164.005 166.09 163.088 165.642 162.32C165.215 161.531 164.639 160.933 163.914 160.528C163.21 160.123 162.442 159.92 161.61 159.92C160.799 159.92 160.031 160.133 159.306 160.56C158.602 160.965 158.026 161.563 157.578 162.352C157.151 163.141 156.938 164.069 156.938 165.136C156.938 166.203 157.151 167.131 157.578 167.92C158.026 168.709 158.602 169.317 159.306 169.744C160.031 170.149 160.799 170.352 161.61 170.352C162.442 170.352 163.21 170.139 163.914 169.712C164.639 169.285 165.215 168.677 165.642 167.888C166.09 167.099 166.314 166.16 166.314 165.072Z" fill="#424242"/>
<path d="M117 39C110.434 39 103.932 40.2933 97.8658 42.806C91.7995 45.3188 86.2876 49.0017 81.6447 53.6447C72.2678 63.0215 67 75.7392 67 89C67 111.1 81.35 129.85 101.2 136.5C103.7 136.9 104.5 135.35 104.5 134V125.55C90.65 128.55 87.7 118.85 87.7 118.85C85.4 113.05 82.15 111.5 82.15 111.5C77.6 108.4 82.5 108.5 82.5 108.5C87.5 108.85 90.15 113.65 90.15 113.65C94.5 121.25 101.85 119 104.7 117.8C105.15 114.55 106.45 112.35 107.85 111.1C96.75 109.85 85.1 105.55 85.1 86.5C85.1 80.95 87 76.5 90.25 72.95C89.75 71.7 88 66.5 90.75 59.75C90.75 59.75 94.95 58.4 104.5 64.85C108.45 63.75 112.75 63.2 117 63.2C121.25 63.2 125.55 63.75 129.5 64.85C139.05 58.4 143.25 59.75 143.25 59.75C146 66.5 144.25 71.7 143.75 72.95C147 76.5 148.9 80.95 148.9 86.5C148.9 105.6 137.2 109.8 126.05 111.05C127.85 112.6 129.5 115.65 129.5 120.3V134C129.5 135.35 130.3 136.95 132.85 136.5C152.7 129.8 167 111.1 167 89C167 82.4339 165.707 75.9321 163.194 69.8658C160.681 63.7995 156.998 58.2876 152.355 53.6447C147.712 49.0017 142.2 45.3188 136.134 42.806C130.068 40.2933 123.566 39 117 39Z" fill="black"/>
<defs>
<filter id="filter0_d_12_171" x="0" y="0" width="234" height="213" filterUnits="userSpaceOnUse" color-interpolation-filters="sRGB">
<feFlood flood-opacity="0" result="BackgroundImageFix"/>
<feColorMatrix in="SourceAlpha" type="matrix" values="0 0 0 0 0 0 0 0 0 0 0 0 0 0 0 0 0 0 127 0" result="hardAlpha"/>
<feOffset dy="4"/>
<feGaussianBlur stdDeviation="4"/>
<feComposite in2="hardAlpha" operator="out"/>
<feColorMatrix type="matrix" values="0 0 0 0 0 0 0 0 0 0 0 0 0 0 0 0 0 0 0.25 0"/>
<feBlend mode="normal" in2="BackgroundImageFix" result="effect1_dropShadow_12_171"/>
<feBlend mode="normal" in="SourceGraphic" in2="effect1_dropShadow_12_171" result="shape"/>
</filter>
</defs>
</svg>
