<svg width="234" height="213" viewBox="0 0 234 213" fill="none" xmlns="http://www.w3.org/2000/svg">
<g filter="url(#filter0_d_12_113)">
<rect x="8" y="4" width="218" height="197" rx="15" fill="#EDF6FF"/>
</g>
<path d="M45.5289 151.664V167.344C45.5289 169.52 44.8995 171.216 43.6409 172.432C42.3822 173.627 40.6969 174.224 38.5849 174.224C36.4515 174.224 34.7235 173.605 33.4009 172.368C32.0995 171.131 31.4489 169.403 31.4489 167.184H35.9289C35.9502 168.144 36.1742 168.891 36.6009 169.424C37.0489 169.957 37.6889 170.224 38.5209 170.224C39.3315 170.224 39.9502 169.968 40.3769 169.456C40.8035 168.944 41.0169 168.24 41.0169 167.344V151.664H45.5289ZM49.6029 165.072C49.6029 163.28 49.9549 161.691 50.6589 160.304C51.3842 158.917 52.3549 157.851 53.5709 157.104C54.8082 156.357 56.1842 155.984 57.6989 155.984C59.0215 155.984 60.1735 156.251 61.1549 156.784C62.1575 157.317 62.9575 157.989 63.5549 158.8V156.272H68.0669V174H63.5549V171.408C62.9789 172.24 62.1789 172.933 61.1549 173.488C60.1522 174.021 58.9895 174.288 57.6669 174.288C56.1735 174.288 54.8082 173.904 53.5709 173.136C52.3549 172.368 51.3842 171.291 50.6589 169.904C49.9549 168.496 49.6029 166.885 49.6029 165.072ZM63.5549 165.136C63.5549 164.048 63.3415 163.12 62.9149 162.352C62.4882 161.563 61.9122 160.965 61.1869 160.56C60.4615 160.133 59.6829 159.92 58.8509 159.92C58.0189 159.92 57.2509 160.123 56.5469 160.528C55.8429 160.933 55.2669 161.531 54.8189 162.32C54.3922 163.088 54.1789 164.005 54.1789 165.072C54.1789 166.139 54.3922 167.077 54.8189 167.888C55.2669 168.677 55.8429 169.285 56.5469 169.712C57.2722 170.139 58.0402 170.352 58.8509 170.352C59.6829 170.352 60.4615 170.149 61.1869 169.744C61.9122 169.317 62.4882 168.72 62.9149 167.952C63.3415 167.163 63.5549 166.224 63.5549 165.136ZM79.8344 169.872L84.3144 156.272H89.0824L82.5224 174H77.0824L70.5544 156.272H75.3544L79.8344 169.872ZM90.4466 165.072C90.4466 163.28 90.7986 161.691 91.5026 160.304C92.228 158.917 93.1986 157.851 94.4146 157.104C95.652 156.357 97.028 155.984 98.5426 155.984C99.8653 155.984 101.017 156.251 101.999 156.784C103.001 157.317 103.801 157.989 104.399 158.8V156.272H108.911V174H104.399V171.408C103.823 172.24 103.023 172.933 101.999 173.488C100.996 174.021 99.8333 174.288 98.5106 174.288C97.0173 174.288 95.652 173.904 94.4146 173.136C93.1986 172.368 92.228 171.291 91.5026 169.904C90.7986 168.496 90.4466 166.885 90.4466 165.072ZM104.399 165.136C104.399 164.048 104.185 163.12 103.759 162.352C103.332 161.563 102.756 160.965 102.031 160.56C101.305 160.133 100.527 159.92 99.6946 159.92C98.8626 159.92 98.0946 160.123 97.3906 160.528C96.6866 160.933 96.1106 161.531 95.6626 162.32C95.236 163.088 95.0226 164.005 95.0226 165.072C95.0226 166.139 95.236 167.077 95.6626 167.888C96.1106 168.677 96.6866 169.285 97.3906 169.712C98.116 170.139 98.884 170.352 99.6946 170.352C100.527 170.352 101.305 170.149 102.031 169.744C102.756 169.317 103.332 168.72 103.759 167.952C104.185 167.163 104.399 166.224 104.399 165.136ZM120.07 174.288C118.619 174.288 117.318 174.032 116.166 173.52C115.014 172.987 114.097 172.272 113.414 171.376C112.753 170.48 112.39 169.488 112.326 168.4H116.838C116.923 169.083 117.254 169.648 117.83 170.096C118.427 170.544 119.163 170.768 120.038 170.768C120.891 170.768 121.553 170.597 122.022 170.256C122.513 169.915 122.758 169.477 122.758 168.944C122.758 168.368 122.459 167.941 121.862 167.664C121.286 167.365 120.358 167.045 119.078 166.704C117.755 166.384 116.667 166.053 115.814 165.712C114.982 165.371 114.257 164.848 113.638 164.144C113.041 163.44 112.742 162.491 112.742 161.296C112.742 160.315 113.019 159.419 113.574 158.608C114.15 157.797 114.961 157.157 116.006 156.688C117.073 156.219 118.321 155.984 119.75 155.984C121.862 155.984 123.547 156.517 124.806 157.584C126.065 158.629 126.758 160.048 126.886 161.84H122.598C122.534 161.136 122.235 160.581 121.702 160.176C121.19 159.749 120.497 159.536 119.622 159.536C118.811 159.536 118.182 159.685 117.734 159.984C117.307 160.283 117.094 160.699 117.094 161.232C117.094 161.829 117.393 162.288 117.99 162.608C118.587 162.907 119.515 163.216 120.774 163.536C122.054 163.856 123.11 164.187 123.942 164.528C124.774 164.869 125.489 165.403 126.086 166.128C126.705 166.832 127.025 167.771 127.046 168.944C127.046 169.968 126.758 170.885 126.182 171.696C125.627 172.507 124.817 173.147 123.75 173.616C122.705 174.064 121.478 174.288 120.07 174.288ZM129.572 165.136C129.572 163.301 129.945 161.701 130.692 160.336C131.438 158.949 132.473 157.883 133.796 157.136C135.118 156.368 136.633 155.984 138.34 155.984C140.537 155.984 142.35 156.539 143.78 157.648C145.23 158.736 146.201 160.272 146.692 162.256H141.86C141.604 161.488 141.166 160.891 140.548 160.464C139.95 160.016 139.204 159.792 138.308 159.792C137.028 159.792 136.014 160.261 135.268 161.2C134.521 162.117 134.148 163.429 134.148 165.136C134.148 166.821 134.521 168.133 135.268 169.072C136.014 169.989 137.028 170.448 138.308 170.448C140.121 170.448 141.305 169.637 141.86 168.016H146.692C146.201 169.936 145.23 171.461 143.78 172.592C142.329 173.723 140.516 174.288 138.34 174.288C136.633 174.288 135.118 173.915 133.796 173.168C132.473 172.4 131.438 171.333 130.692 169.968C129.945 168.581 129.572 166.971 129.572 165.136ZM154.454 159.024C155.03 158.085 155.776 157.349 156.694 156.816C157.632 156.283 158.699 156.016 159.894 156.016V160.72H158.71C157.302 160.72 156.235 161.051 155.51 161.712C154.806 162.373 154.454 163.525 154.454 165.168V174H149.974V156.272H154.454V159.024ZM165.183 154.16C164.394 154.16 163.732 153.915 163.199 153.424C162.687 152.912 162.431 152.283 162.431 151.536C162.431 150.789 162.687 150.171 163.199 149.68C163.732 149.168 164.394 148.912 165.183 148.912C165.972 148.912 166.623 149.168 167.135 149.68C167.668 150.171 167.935 150.789 167.935 151.536C167.935 152.283 167.668 152.912 167.135 153.424C166.623 153.915 165.972 154.16 165.183 154.16ZM167.391 156.272V174H162.911V156.272H167.391ZM176.297 158.832C176.873 158.021 177.663 157.349 178.665 156.816C179.689 156.261 180.852 155.984 182.153 155.984C183.668 155.984 185.033 156.357 186.249 157.104C187.487 157.851 188.457 158.917 189.161 160.304C189.887 161.669 190.249 163.259 190.249 165.072C190.249 166.885 189.887 168.496 189.161 169.904C188.457 171.291 187.487 172.368 186.249 173.136C185.033 173.904 183.668 174.288 182.153 174.288C180.852 174.288 179.7 174.021 178.697 173.488C177.716 172.955 176.916 172.283 176.297 171.472V182.448H171.817V156.272H176.297V158.832ZM185.673 165.072C185.673 164.005 185.449 163.088 185.001 162.32C184.575 161.531 183.999 160.933 183.273 160.528C182.569 160.123 181.801 159.92 180.969 159.92C180.159 159.92 179.391 160.133 178.665 160.56C177.961 160.965 177.385 161.563 176.937 162.352C176.511 163.141 176.297 164.069 176.297 165.136C176.297 166.203 176.511 167.131 176.937 167.92C177.385 168.709 177.961 169.317 178.665 169.744C179.391 170.149 180.159 170.352 180.969 170.352C181.801 170.352 182.569 170.139 183.273 169.712C183.999 169.285 184.575 168.677 185.001 167.888C185.449 167.099 185.673 166.16 185.673 165.072ZM198.721 159.952V168.528C198.721 169.125 198.86 169.563 199.137 169.84C199.436 170.096 199.926 170.224 200.609 170.224H202.689V174H199.873C196.097 174 194.209 172.165 194.209 168.496V159.952H192.097V156.272H194.209V151.888H198.721V156.272H202.689V159.952H198.721Z" fill="#424242"/>
<path d="M68.1 38.1331H165.9V138.868H68.1V38.1331Z" fill="#F0DB4F"/>
<path d="M157.896 114.842C157.18 110.247 154.27 106.387 145.652 102.787C142.659 101.37 139.321 100.356 138.327 98.0187C137.973 96.6588 137.927 95.8927 138.15 95.0695C138.791 92.398 141.888 91.5651 144.341 92.3312C145.922 92.8767 147.418 94.1312 148.32 96.1325C152.541 93.3177 152.532 93.3362 155.479 91.4017C154.4 89.6789 153.824 88.8839 153.118 88.1468C150.58 85.2266 147.121 83.7226 141.59 83.8377L138.709 84.2215C135.948 84.9401 133.316 86.4328 131.773 88.4341C127.144 93.8448 128.464 103.314 134.098 107.211C139.648 111.502 147.801 112.478 148.842 116.49C149.855 121.402 145.338 122.992 140.847 122.427C137.538 121.718 135.697 119.986 133.707 116.835C130.045 119.019 130.045 119.019 126.279 121.249C127.172 123.26 128.11 124.17 129.607 125.912C136.691 133.314 154.42 132.95 157.599 121.747C157.728 121.363 158.584 118.797 157.896 114.842ZM121.267 84.4307H112.12L112.082 108.79C112.082 113.971 112.342 118.72 111.524 120.176C110.186 123.039 106.718 122.684 105.138 122.129C103.529 121.314 102.711 120.156 101.763 118.52C101.503 118.05 101.308 117.686 101.242 117.658L93.8047 122.349C95.0414 124.964 96.8633 127.233 99.1969 128.707C102.683 130.862 107.368 131.523 112.268 130.364C115.457 129.407 118.209 127.425 119.649 124.408C121.732 120.453 121.285 115.666 121.266 110.371C121.313 101.733 121.267 93.0964 121.267 84.4307Z" fill="#323330"/>
<defs>
<filter id="filter0_d_12_113" x="0" y="0" width="234" height="213" filterUnits="userSpaceOnUse" color-interpolation-filters="sRGB">
<feFlood flood-opacity="0" result="BackgroundImageFix"/>
<feColorMatrix in="SourceAlpha" type="matrix" values="0 0 0 0 0 0 0 0 0 0 0 0 0 0 0 0 0 0 127 0" result="hardAlpha"/>
<feOffset dy="4"/>
<feGaussianBlur stdDeviation="4"/>
<feComposite in2="hardAlpha" operator="out"/>
<feColorMatrix type="matrix" values="0 0 0 0 0 0 0 0 0 0 0 0 0 0 0 0 0 0 0.25 0"/>
<feBlend mode="normal" in2="BackgroundImageFix" result="effect1_dropShadow_12_113"/>
<feBlend mode="normal" in="SourceGraphic" in2="effect1_dropShadow_12_113" result="shape"/>
</filter>
</defs>
</svg>
