<svg width="234" height="213" viewBox="0 0 234 213" fill="none" xmlns="http://www.w3.org/2000/svg">
<g filter="url(#filter0_d_12_102)">
<rect x="8" y="4" width="218" height="197" rx="15" fill="#EDF6FF"/>
</g>
<g clip-path="url(#clip0_12_102)">
<path d="M166.944 61.5834C166.981 61.7163 167 61.8534 167 61.9913V83.4186C167 83.9785 166.691 84.4955 166.19 84.7739L147.645 95.1288V115.652C147.645 115.926 147.57 116.196 147.429 116.434C147.287 116.672 147.084 116.87 146.839 117.007L108.125 138.618C108.036 138.667 107.94 138.698 107.843 138.731C107.807 138.743 107.773 138.764 107.734 138.774C107.464 138.843 107.179 138.843 106.909 138.774C106.864 138.763 106.824 138.739 106.782 138.724C106.693 138.692 106.6 138.665 106.516 138.618L67.8098 117.007C67.5638 116.87 67.3594 116.673 67.2173 116.435C67.0751 116.197 67.0001 115.927 67 115.652V51.3697C67 51.2288 67.0203 51.0921 67.0562 50.9595C67.0684 50.9144 67.0965 50.8735 67.1129 50.8284C67.143 50.7466 67.1715 50.6625 67.2156 50.5864C67.2457 50.5356 67.2898 50.4947 67.3262 50.4478C67.3727 50.3853 67.4148 50.3209 67.4691 50.2659C67.5156 50.2213 67.5762 50.1879 67.6285 50.1489C67.6871 50.1019 67.7391 50.0512 67.8055 50.0141H67.8074L87.1613 39.2088C87.4064 39.072 87.6842 39 87.967 39C88.2498 39 88.5276 39.072 88.7727 39.2088L108.127 50.0141H108.13C108.195 50.0534 108.25 50.1019 108.308 50.147C108.36 50.186 108.419 50.2213 108.465 50.2644C108.521 50.3209 108.562 50.3856 108.61 50.4478C108.644 50.4947 108.691 50.5356 108.719 50.5864C108.765 50.6644 108.791 50.7466 108.823 50.8288C108.839 50.8735 108.868 50.9144 108.88 50.9614C108.917 51.0944 108.936 51.2319 108.936 51.3697V91.519L125.064 82.5141V61.9894C125.064 61.8531 125.084 61.7141 125.12 61.5834C125.134 61.5364 125.161 61.4955 125.177 61.4508C125.209 61.3686 125.237 61.2841 125.281 61.2084C125.311 61.1576 125.355 61.1167 125.39 61.0697C125.438 61.0072 125.479 60.9428 125.535 60.8879C125.582 60.8432 125.64 60.8099 125.692 60.7709C125.753 60.7239 125.805 60.6731 125.87 60.636H125.871L145.227 49.8307C145.472 49.6938 145.75 49.6217 146.033 49.6217C146.316 49.6217 146.594 49.6938 146.839 49.8307L166.193 60.636C166.261 60.675 166.313 60.7239 166.374 60.7686C166.424 60.808 166.482 60.8432 166.529 60.886C166.585 60.9428 166.625 61.0072 166.673 61.0697C166.71 61.1167 166.754 61.1576 166.783 61.2084C166.829 61.2841 166.855 61.3686 166.887 61.4508C166.905 61.4955 166.932 61.5364 166.944 61.5834ZM163.774 82.5144V64.6963L157.001 68.4769L147.644 73.7012V91.5194L163.776 82.5144H163.774ZM144.42 114.747V96.9167L135.216 102.014L108.934 116.56V134.557L144.42 114.747V114.747ZM70.2262 54.0743V114.747L105.708 134.556V116.561L87.1719 106.389L87.166 106.385L87.1582 106.381C87.0957 106.346 87.043 106.295 86.9848 106.252C86.934 106.213 86.8758 106.182 86.8316 106.139L86.8277 106.133C86.7754 106.084 86.7391 106.024 86.6949 105.969C86.6543 105.916 86.6063 105.871 86.5738 105.817L86.5719 105.811C86.5355 105.752 86.5133 105.682 86.4871 105.616C86.4609 105.557 86.427 105.502 86.4105 105.44V105.438C86.3906 105.364 86.3867 105.285 86.3785 105.209C86.3707 105.151 86.3543 105.092 86.3543 105.033V63.0796L76.9992 57.8531L70.2262 54.0766V54.0743ZM87.9691 42.3686L71.8434 51.3697L87.9652 60.3705L104.089 51.3675L87.9652 42.3686H87.9691ZM96.3551 98.5421L105.71 93.3201V54.0743L98.9375 57.8553L89.5801 63.0792V102.325L96.3551 98.5421ZM146.033 52.9906L129.909 61.9913L146.033 70.9925L162.154 61.9894L146.033 52.9906ZM144.42 73.7012L135.063 68.4769L128.29 64.6963V82.5144L137.645 87.7368L144.42 91.5194V73.7012H144.42ZM107.319 113.855L130.969 100.763L142.791 94.2201L126.679 85.225L108.129 95.5811L91.2215 105.02L107.319 113.855Z" fill="#FF2D20"/>
</g>
<path d="M64.7818 170.448H72.1418V174H60.3018V151.664H64.7818V170.448ZM73.8372 165.072C73.8372 163.28 74.1892 161.691 74.8932 160.304C75.6186 158.917 76.5893 157.851 77.8053 157.104C79.0426 156.357 80.4186 155.984 81.9333 155.984C83.2559 155.984 84.4079 156.251 85.3893 156.784C86.3919 157.317 87.1919 157.989 87.7893 158.8V156.272H92.3013V174H87.7893V171.408C87.2133 172.24 86.4133 172.933 85.3893 173.488C84.3866 174.021 83.2239 174.288 81.9013 174.288C80.4079 174.288 79.0426 173.904 77.8053 173.136C76.5893 172.368 75.6186 171.291 74.8932 169.904C74.1892 168.496 73.8372 166.885 73.8372 165.072ZM87.7893 165.136C87.7893 164.048 87.5759 163.12 87.1493 162.352C86.7226 161.563 86.1466 160.965 85.4213 160.56C84.6959 160.133 83.9173 159.92 83.0853 159.92C82.2533 159.92 81.4853 160.123 80.7812 160.528C80.0773 160.933 79.5013 161.531 79.0533 162.32C78.6266 163.088 78.4133 164.005 78.4133 165.072C78.4133 166.139 78.6266 167.077 79.0533 167.888C79.5013 168.677 80.0773 169.285 80.7812 169.712C81.5066 170.139 82.2746 170.352 83.0853 170.352C83.9173 170.352 84.6959 170.149 85.4213 169.744C86.1466 169.317 86.7226 168.72 87.1493 167.952C87.5759 167.163 87.7893 166.224 87.7893 165.136ZM101.157 159.024C101.733 158.085 102.479 157.349 103.397 156.816C104.335 156.283 105.402 156.016 106.597 156.016V160.72H105.413C104.005 160.72 102.938 161.051 102.213 161.712C101.509 162.373 101.157 163.525 101.157 165.168V174H96.6768V156.272H101.157V159.024ZM108.462 165.072C108.462 163.28 108.814 161.691 109.518 160.304C110.244 158.917 111.214 157.851 112.43 157.104C113.668 156.357 115.044 155.984 116.558 155.984C117.881 155.984 119.033 156.251 120.014 156.784C121.017 157.317 121.817 157.989 122.414 158.8V156.272H126.926V174H122.414V171.408C121.838 172.24 121.038 172.933 120.014 173.488C119.012 174.021 117.849 174.288 116.526 174.288C115.033 174.288 113.668 173.904 112.43 173.136C111.214 172.368 110.244 171.291 109.518 169.904C108.814 168.496 108.462 166.885 108.462 165.072ZM122.414 165.136C122.414 164.048 122.201 163.12 121.774 162.352C121.348 161.563 120.772 160.965 120.046 160.56C119.321 160.133 118.542 159.92 117.71 159.92C116.878 159.92 116.11 160.123 115.406 160.528C114.702 160.933 114.126 161.531 113.678 162.32C113.252 163.088 113.038 164.005 113.038 165.072C113.038 166.139 113.252 167.077 113.678 167.888C114.126 168.677 114.702 169.285 115.406 169.712C116.132 170.139 116.9 170.352 117.71 170.352C118.542 170.352 119.321 170.149 120.046 169.744C120.772 169.317 121.348 168.72 121.774 167.952C122.201 167.163 122.414 166.224 122.414 165.136ZM138.694 169.872L143.174 156.272H147.942L141.382 174H135.942L129.414 156.272H134.214L138.694 169.872ZM166.938 164.752C166.938 165.392 166.895 165.968 166.81 166.48H153.85C153.957 167.76 154.405 168.763 155.194 169.488C155.983 170.213 156.954 170.576 158.106 170.576C159.77 170.576 160.954 169.861 161.658 168.432H166.49C165.978 170.139 164.997 171.547 163.546 172.656C162.095 173.744 160.314 174.288 158.202 174.288C156.495 174.288 154.959 173.915 153.594 173.168C152.25 172.4 151.194 171.323 150.426 169.936C149.679 168.549 149.306 166.949 149.306 165.136C149.306 163.301 149.679 161.691 150.426 160.304C151.173 158.917 152.218 157.851 153.562 157.104C154.906 156.357 156.453 155.984 158.202 155.984C159.887 155.984 161.391 156.347 162.714 157.072C164.058 157.797 165.093 158.832 165.818 160.176C166.565 161.499 166.938 163.024 166.938 164.752ZM162.298 163.472C162.277 162.32 161.861 161.403 161.05 160.72C160.239 160.016 159.247 159.664 158.074 159.664C156.965 159.664 156.026 160.005 155.258 160.688C154.511 161.349 154.053 162.277 153.882 163.472H162.298ZM174.688 150.32V174H170.208V150.32H174.688Z" fill="#424242"/>
<defs>
<filter id="filter0_d_12_102" x="0" y="0" width="234" height="213" filterUnits="userSpaceOnUse" color-interpolation-filters="sRGB">
<feFlood flood-opacity="0" result="BackgroundImageFix"/>
<feColorMatrix in="SourceAlpha" type="matrix" values="0 0 0 0 0 0 0 0 0 0 0 0 0 0 0 0 0 0 127 0" result="hardAlpha"/>
<feOffset dy="4"/>
<feGaussianBlur stdDeviation="4"/>
<feComposite in2="hardAlpha" operator="out"/>
<feColorMatrix type="matrix" values="0 0 0 0 0 0 0 0 0 0 0 0 0 0 0 0 0 0 0.25 0"/>
<feBlend mode="normal" in2="BackgroundImageFix" result="effect1_dropShadow_12_102"/>
<feBlend mode="normal" in="SourceGraphic" in2="effect1_dropShadow_12_102" result="shape"/>
</filter>
<clipPath id="clip0_12_102">
<rect width="100" height="100" fill="white" transform="translate(67 39)"/>
</clipPath>
</defs>
</svg>
