<svg width="234" height="213" viewBox="0 0 234 213" fill="none" xmlns="http://www.w3.org/2000/svg">
<g filter="url(#filter0_d_12_124)">
<rect x="8" y="4" width="218" height="197" rx="15" fill="#EDF6FF"/>
</g>
<g clip-path="url(#clip0_12_124)">
<path d="M117.5 134.757C160.302 134.757 195 116.455 195 93.8785C195 71.3019 160.302 53 117.5 53C74.6979 53 40 71.3019 40 93.8785C40 116.455 74.6979 134.757 117.5 134.757Z" fill="url(#paint0_radial_12_124)"/>
<path d="M117.5 131.72C158.63 131.72 191.973 114.778 191.973 93.8786C191.973 72.9793 158.63 56.0371 117.5 56.0371C76.3699 56.0371 43.0273 72.9793 43.0273 93.8786C43.0273 114.778 76.3699 131.72 117.5 131.72Z" fill="#6181B6"/>
<path d="M132.576 106.148L136.27 87.0756C137.117 82.763 136.391 79.5438 134.211 77.5393C132.092 75.5956 128.459 74.6238 123.131 74.6238H116.713L118.529 65.1482C118.59 64.7838 118.529 64.4193 118.287 64.1156C118.045 63.8119 117.742 63.6904 117.379 63.6904H108.539C107.934 63.6904 107.449 64.1156 107.328 64.6623L103.393 84.8889C103.029 82.5808 102.182 80.6371 100.729 79.0578C98.125 76.0815 94.0684 74.563 88.5586 74.563H71.5449C70.9395 74.563 70.4551 74.9882 70.334 75.5349L62.4023 116.596C62.3418 116.96 62.4023 117.325 62.6445 117.628C62.8867 117.932 63.1895 118.053 63.5527 118.053H72.4531C73.0586 118.053 73.543 117.628 73.6641 117.082L75.6016 107.181H82.2012C85.6523 107.181 88.6191 106.816 90.8594 106.087C93.2207 105.298 95.3398 104.022 97.2168 102.261C98.7305 100.864 100.002 99.2845 100.971 97.5838L99.3965 105.784C99.3359 106.148 99.3965 106.513 99.6387 106.816C99.8809 107.12 100.184 107.242 100.547 107.242H109.387C109.992 107.242 110.477 106.816 110.598 106.27L114.957 83.7956H121.012C123.615 83.7956 124.342 84.2815 124.584 84.5245C124.766 84.7067 125.129 85.4356 124.705 87.683L121.193 105.845C121.133 106.209 121.193 106.573 121.436 106.877C121.678 107.181 121.98 107.302 122.344 107.302H131.426C131.971 107.12 132.455 106.695 132.576 106.148ZM91.6465 90.3556C91.1016 93.2104 90.0723 95.2756 88.5586 96.4297C87.0449 97.5838 84.5625 98.1912 81.293 98.1912H77.3574L80.2031 83.4919H85.2891C89.043 83.4919 90.5566 84.2815 91.1621 84.9497C91.9492 85.9215 92.1309 87.8045 91.6465 90.3556ZM170.357 79.0578C167.754 76.0815 163.697 74.563 158.188 74.563H141.053C140.447 74.563 139.963 74.9882 139.842 75.5349L131.91 116.535C131.85 116.899 131.91 117.264 132.152 117.567C132.395 117.871 132.697 117.993 133.061 117.993H141.961C142.566 117.993 143.051 117.567 143.172 117.021L145.109 107.12H151.709C155.16 107.12 158.127 106.756 160.367 106.027C162.729 105.237 164.848 103.962 166.725 102.2C168.299 100.742 169.631 99.1023 170.6 97.3408C171.568 95.5793 172.295 93.6356 172.719 91.5097C173.748 86.2252 172.961 82.0949 170.357 79.0578ZM161.094 90.3556C160.549 93.2104 159.52 95.2756 158.006 96.4297C156.492 97.5838 154.01 98.1912 150.74 98.1912H146.805L149.65 83.4919H154.736C158.49 83.4919 160.004 84.2815 160.609 84.9497C161.457 85.9215 161.639 87.8045 161.094 90.3556Z" fill="white"/>
<path d="M85.2891 82.2771C88.6797 82.2771 90.9199 82.8845 92.0703 84.1601C93.2207 85.4356 93.4629 87.5616 92.8574 90.5986C92.252 93.7571 91.041 96.0653 89.2852 97.4016C87.5293 98.7379 84.8652 99.406 81.293 99.406H75.9043L79.2344 82.2771H85.2891ZM63.6133 116.778H72.5137L74.6328 105.905H82.2617C85.6523 105.905 88.377 105.541 90.5566 104.812C92.7363 104.083 94.6738 102.929 96.4902 101.228C98.0039 99.8312 99.2148 98.3127 100.123 96.6727C101.031 95.0327 101.697 93.2105 102.061 91.206C103.029 86.3468 102.303 82.5808 99.9414 79.8475C97.5801 77.1142 93.8262 75.7779 88.6797 75.7779H71.5449L63.6133 116.778ZM108.6 64.9053H117.439L115.32 75.7779H123.191C128.156 75.7779 131.547 76.6282 133.424 78.3897C135.301 80.1512 135.846 82.9453 135.119 86.8327L131.426 105.905H122.465L125.977 87.7438C126.4 85.6786 126.219 84.2816 125.553 83.5527C124.887 82.8238 123.373 82.3986 121.133 82.3986H114.049L109.508 105.905H100.668L108.6 64.9053ZM154.736 82.2771C158.127 82.2771 160.367 82.8845 161.518 84.1601C162.668 85.4356 162.91 87.5616 162.305 90.5986C161.699 93.7571 160.488 96.0653 158.732 97.4016C156.977 98.7379 154.312 99.406 150.74 99.406H145.352L148.682 82.2771H154.736ZM133.061 116.778H141.961L144.08 105.905H151.709C155.1 105.905 157.824 105.541 160.004 104.812C162.184 104.083 164.121 102.929 165.938 101.228C167.451 99.8312 168.662 98.3127 169.57 96.6727C170.479 95.0327 171.145 93.2105 171.508 91.206C172.477 86.3468 171.75 82.5808 169.389 79.8475C167.027 77.1142 163.273 75.7779 158.127 75.7779H140.992L133.061 116.778Z" fill="#000004"/>
</g>
<path d="M105.949 158.576C105.949 159.771 105.661 160.891 105.085 161.936C104.53 162.981 103.645 163.824 102.429 164.464C101.234 165.104 99.7198 165.424 97.8851 165.424H94.1411V174H89.6611V151.664H97.8851C99.6131 151.664 101.085 151.963 102.301 152.56C103.517 153.157 104.424 153.979 105.021 155.024C105.64 156.069 105.949 157.253 105.949 158.576ZM97.6931 161.808C98.9305 161.808 99.8478 161.531 100.445 160.976C101.042 160.4 101.341 159.6 101.341 158.576C101.341 156.4 100.125 155.312 97.6931 155.312H94.1411V161.808H97.6931ZM119.114 156.016C120.458 156.016 121.653 156.315 122.698 156.912C123.743 157.488 124.554 158.352 125.13 159.504C125.727 160.635 126.026 162 126.026 163.6V174H121.546V164.208C121.546 162.8 121.194 161.723 120.49 160.976C119.786 160.208 118.826 159.824 117.61 159.824C116.373 159.824 115.391 160.208 114.666 160.976C113.962 161.723 113.61 162.8 113.61 164.208V174H109.13V150.32H113.61V158.48C114.186 157.712 114.954 157.115 115.914 156.688C116.874 156.24 117.941 156.016 119.114 156.016ZM146.574 158.576C146.574 159.771 146.286 160.891 145.71 161.936C145.155 162.981 144.27 163.824 143.054 164.464C141.859 165.104 140.345 165.424 138.51 165.424H134.766V174H130.286V151.664H138.51C140.238 151.664 141.71 151.963 142.926 152.56C144.142 153.157 145.049 153.979 145.646 155.024C146.265 156.069 146.574 157.253 146.574 158.576ZM138.318 161.808C139.555 161.808 140.473 161.531 141.07 160.976C141.667 160.4 141.966 159.6 141.966 158.576C141.966 156.4 140.75 155.312 138.318 155.312H134.766V161.808H138.318Z" fill="#424242"/>
<defs>
<filter id="filter0_d_12_124" x="0" y="0" width="234" height="213" filterUnits="userSpaceOnUse" color-interpolation-filters="sRGB">
<feFlood flood-opacity="0" result="BackgroundImageFix"/>
<feColorMatrix in="SourceAlpha" type="matrix" values="0 0 0 0 0 0 0 0 0 0 0 0 0 0 0 0 0 0 127 0" result="hardAlpha"/>
<feOffset dy="4"/>
<feGaussianBlur stdDeviation="4"/>
<feComposite in2="hardAlpha" operator="out"/>
<feColorMatrix type="matrix" values="0 0 0 0 0 0 0 0 0 0 0 0 0 0 0 0 0 0 0.25 0"/>
<feBlend mode="normal" in2="BackgroundImageFix" result="effect1_dropShadow_12_124"/>
<feBlend mode="normal" in="SourceGraphic" in2="effect1_dropShadow_12_124" result="shape"/>
</filter>
<radialGradient id="paint0_radial_12_124" cx="0" cy="0" r="1" gradientUnits="userSpaceOnUse" gradientTransform="translate(86.5312 67.3758) scale(101.777 102.102)">
<stop stop-color="white"/>
<stop offset="0.5" stop-color="#4C6B97"/>
<stop offset="1" stop-color="#231F20"/>
</radialGradient>
<clipPath id="clip0_12_124">
<rect width="155" height="82" fill="white" transform="translate(40 53)"/>
</clipPath>
</defs>
</svg>
