<svg width="234" height="213" viewBox="0 0 234 213" fill="none" xmlns="http://www.w3.org/2000/svg">
<g filter="url(#filter0_d_12_129)">
<rect x="8" y="4" width="218" height="197" rx="15" fill="#EDF6FF"/>
</g>
<g clip-path="url(#clip0_12_129)">
<g clip-path="url(#clip1_12_129)">
<path d="M116.577 39.0283C91.2516 39.0283 92.8328 50.0538 92.8328 50.0538L92.8609 61.4766H117.028V64.906H83.2621C83.2621 64.906 67.0566 63.0609 67.0566 88.7138C67.0566 114.368 81.2012 113.458 81.2012 113.458H89.6426V101.553C89.6426 101.553 89.1875 87.3534 103.561 87.3534H127.531C127.531 87.3534 140.998 87.5719 140.998 74.2871V52.3217C140.998 52.3217 143.043 39.0283 116.577 39.0283ZM103.251 46.7099C103.822 46.7094 104.387 46.8219 104.915 47.0411C105.443 47.2602 105.922 47.5817 106.326 47.9871C106.73 48.3925 107.05 48.8739 107.269 49.4037C107.487 49.9335 107.599 50.5013 107.598 51.0746C107.599 51.6479 107.487 52.2157 107.269 52.7455C107.05 53.2753 106.73 53.7567 106.326 54.1621C105.922 54.5675 105.443 54.8889 104.915 55.1081C104.387 55.3273 103.822 55.4398 103.251 55.4393C102.68 55.4398 102.114 55.3273 101.586 55.1081C101.059 54.8889 100.579 54.5675 100.175 54.1621C99.7716 53.7567 99.4513 53.2753 99.233 52.7455C99.0147 52.2157 98.9026 51.6479 98.9031 51.0746C98.9026 50.5013 99.0147 49.9335 99.233 49.4037C99.4513 48.8739 99.7716 48.3925 100.175 47.9871C100.579 47.5817 101.059 47.2602 101.586 47.0411C102.114 46.8219 102.68 46.7094 103.251 46.7099Z" fill="url(#paint0_linear_12_129)"/>
<path d="M117.296 138.657C142.621 138.657 141.039 127.632 141.039 127.632L141.011 116.209H116.844V112.78H150.61C150.61 112.78 166.815 114.625 166.815 88.9714C166.815 63.3181 152.671 64.2279 152.671 64.2279H144.229V76.1318C144.229 76.1318 144.684 90.3318 130.311 90.3318H106.341C106.341 90.3318 92.8742 90.1134 92.8742 103.398V125.364C92.8742 125.364 90.8293 138.657 117.295 138.657H117.296ZM130.621 130.976C130.05 130.977 129.485 130.864 128.957 130.645C128.429 130.426 127.95 130.105 127.546 129.699C127.142 129.294 126.822 128.812 126.604 128.283C126.385 127.753 126.273 127.185 126.274 126.612C126.273 126.038 126.385 125.471 126.604 124.941C126.822 124.411 127.142 123.93 127.546 123.524C127.95 123.119 128.429 122.797 128.957 122.578C129.485 122.359 130.05 122.246 130.621 122.247C131.193 122.246 131.758 122.359 132.286 122.578C132.814 122.797 133.293 123.119 133.697 123.524C134.101 123.929 134.421 124.411 134.639 124.94C134.858 125.47 134.97 126.038 134.969 126.611C134.97 127.185 134.858 127.753 134.639 128.282C134.421 128.812 134.101 129.293 133.697 129.699C133.293 130.104 132.814 130.426 132.286 130.645C131.758 130.864 131.193 130.977 130.621 130.976Z" fill="url(#paint1_linear_12_129)"/>
</g>
</g>
<path d="M78.5116 158.576C78.5116 159.771 78.2236 160.891 77.6476 161.936C77.093 162.981 76.2076 163.824 74.9916 164.464C73.797 165.104 72.2823 165.424 70.4476 165.424H66.7036V174H62.2236V151.664H70.4476C72.1756 151.664 73.6476 151.963 74.8636 152.56C76.0796 153.157 76.9863 153.979 77.5836 155.024C78.2023 156.069 78.5116 157.253 78.5116 158.576ZM70.2556 161.808C71.493 161.808 72.4103 161.531 73.0076 160.976C73.605 160.4 73.9036 159.6 73.9036 158.576C73.9036 156.4 72.6876 155.312 70.2556 155.312H66.7036V161.808H70.2556ZM98.6524 156.272L87.6764 182.384H82.9084L86.7484 173.552L79.6444 156.272H84.6684L89.2444 168.656L93.8844 156.272H98.6524ZM106.283 159.952V168.528C106.283 169.125 106.422 169.563 106.699 169.84C106.998 170.096 107.489 170.224 108.171 170.224H110.251V174H107.435C103.659 174 101.771 172.165 101.771 168.496V159.952H99.6594V156.272H101.771V151.888H106.283V156.272H110.251V159.952H106.283ZM123.458 156.016C124.802 156.016 125.996 156.315 127.042 156.912C128.087 157.488 128.898 158.352 129.474 159.504C130.071 160.635 130.37 162 130.37 163.6V174H125.89V164.208C125.89 162.8 125.538 161.723 124.834 160.976C124.13 160.208 123.17 159.824 121.954 159.824C120.716 159.824 119.735 160.208 119.01 160.976C118.306 161.723 117.954 162.8 117.954 164.208V174H113.474V150.32H117.954V158.48C118.53 157.712 119.298 157.115 120.258 156.688C121.218 156.24 122.284 156.016 123.458 156.016ZM142.502 174.288C140.795 174.288 139.259 173.915 137.894 173.168C136.529 172.4 135.451 171.323 134.662 169.936C133.894 168.549 133.51 166.949 133.51 165.136C133.51 163.323 133.905 161.723 134.694 160.336C135.505 158.949 136.603 157.883 137.99 157.136C139.377 156.368 140.923 155.984 142.63 155.984C144.337 155.984 145.883 156.368 147.27 157.136C148.657 157.883 149.745 158.949 150.534 160.336C151.345 161.723 151.75 163.323 151.75 165.136C151.75 166.949 151.334 168.549 150.502 169.936C149.691 171.323 148.582 172.4 147.174 173.168C145.787 173.915 144.23 174.288 142.502 174.288ZM142.502 170.384C143.313 170.384 144.07 170.192 144.774 169.808C145.499 169.403 146.075 168.805 146.502 168.016C146.929 167.227 147.142 166.267 147.142 165.136C147.142 163.451 146.694 162.16 145.798 161.264C144.923 160.347 143.846 159.888 142.566 159.888C141.286 159.888 140.209 160.347 139.334 161.264C138.481 162.16 138.054 163.451 138.054 165.136C138.054 166.821 138.47 168.123 139.302 169.04C140.155 169.936 141.222 170.384 142.502 170.384ZM164.86 156.016C166.972 156.016 168.679 156.688 169.98 158.032C171.281 159.355 171.932 161.211 171.932 163.6V174H167.452V164.208C167.452 162.8 167.1 161.723 166.396 160.976C165.692 160.208 164.732 159.824 163.516 159.824C162.279 159.824 161.297 160.208 160.572 160.976C159.868 161.723 159.516 162.8 159.516 164.208V174H155.036V156.272H159.516V158.48C160.113 157.712 160.871 157.115 161.788 156.688C162.727 156.24 163.751 156.016 164.86 156.016Z" fill="#424242"/>
<defs>
<filter id="filter0_d_12_129" x="0" y="0" width="234" height="213" filterUnits="userSpaceOnUse" color-interpolation-filters="sRGB">
<feFlood flood-opacity="0" result="BackgroundImageFix"/>
<feColorMatrix in="SourceAlpha" type="matrix" values="0 0 0 0 0 0 0 0 0 0 0 0 0 0 0 0 0 0 127 0" result="hardAlpha"/>
<feOffset dy="4"/>
<feGaussianBlur stdDeviation="4"/>
<feComposite in2="hardAlpha" operator="out"/>
<feColorMatrix type="matrix" values="0 0 0 0 0 0 0 0 0 0 0 0 0 0 0 0 0 0 0.25 0"/>
<feBlend mode="normal" in2="BackgroundImageFix" result="effect1_dropShadow_12_129"/>
<feBlend mode="normal" in="SourceGraphic" in2="effect1_dropShadow_12_129" result="shape"/>
</filter>
<linearGradient id="paint0_linear_12_129" x1="1025.73" y1="935.132" x2="5988.62" y2="5829.32" gradientUnits="userSpaceOnUse">
<stop stop-color="#387EB8"/>
<stop offset="1" stop-color="#366994"/>
</linearGradient>
<linearGradient id="paint1_linear_12_129" x1="1507.88" y1="1595.99" x2="6836.49" y2="6613.62" gradientUnits="userSpaceOnUse">
<stop stop-color="#FFE052"/>
<stop offset="1" stop-color="#FFC331"/>
</linearGradient>
<clipPath id="clip0_12_129">
<rect width="100" height="100" fill="white" transform="translate(67 39)"/>
</clipPath>
<clipPath id="clip1_12_129">
<rect width="100" height="100" fill="white" transform="translate(67 39)"/>
</clipPath>
</defs>
</svg>
