<svg width="190" height="190" viewBox="0 0 190 190" fill="none" xmlns="http://www.w3.org/2000/svg">
<g clip-path="url(#clip0_19_440)">
<path d="M125.392 29.6063L29.6063 64.0885C27.2968 64.9199 25.4122 66.6347 24.3671 68.8556C23.3219 71.0765 23.2019 73.6216 24.0332 75.931L52.246 154.301C53.0774 156.61 54.7921 158.495 57.013 159.54C59.2339 160.585 61.7791 160.705 64.0885 159.874L159.874 125.392C162.183 124.56 164.068 122.846 165.113 120.625C166.158 118.404 166.278 115.859 165.447 113.549L137.234 35.1793C136.403 32.8699 134.688 30.9853 132.467 29.9401C130.246 28.895 127.701 28.7749 125.392 29.6063ZM79.0312 111.215C80.2044 111.575 81.1864 112.387 81.7612 113.471C82.3361 114.556 82.4566 115.824 82.0963 116.997C81.736 118.17 80.9245 119.152 79.8401 119.727C78.7558 120.302 77.4875 120.422 76.3144 120.062L54.1967 113.27C53.51 113.059 52.8818 112.691 52.3619 112.195C51.8419 111.7 51.4446 111.09 51.2013 110.414C50.9579 109.738 50.8753 109.015 50.96 108.301C51.0446 107.588 51.2942 106.904 51.6889 106.304L64.4023 86.9726C65.0767 85.9472 66.1307 85.2317 67.3326 84.9835C68.5345 84.7353 69.7858 84.9747 70.8112 85.6491C71.8366 86.3234 72.5521 87.3775 72.8003 88.5794C73.0485 89.7813 72.8091 91.0326 72.1348 92.058L62.8098 106.235L79.0312 111.215ZM97.0924 60.8189L101.62 128.043C101.673 128.656 101.603 129.273 101.415 129.859C101.226 130.444 100.923 130.986 100.523 131.453C100.122 131.92 99.6327 132.303 99.0826 132.578C98.5326 132.854 97.9331 133.017 97.3193 133.058C96.7054 133.099 96.0896 133.018 95.5077 132.818C94.9258 132.618 94.3896 132.305 93.9304 131.895C93.4712 131.486 93.0983 130.989 92.8334 130.434C92.5685 129.878 92.417 129.276 92.3877 128.661L87.86 61.4375C87.8024 60.2271 88.2218 59.0424 89.0283 58.1379C89.8347 57.2334 90.9637 56.6814 92.1728 56.6003C93.3819 56.5193 94.5745 56.9158 95.4944 57.7046C96.4143 58.4934 96.988 59.6116 97.0924 60.8189ZM137.791 83.1764L125.078 102.508C124.403 103.533 123.349 104.248 122.147 104.497C120.946 104.745 119.694 104.505 118.669 103.831C117.644 103.157 116.928 102.103 116.68 100.901C116.432 99.6988 116.671 98.4476 117.345 97.4222L126.67 83.2453L110.449 78.2651C109.868 78.0867 109.328 77.7956 108.86 77.4085C108.391 77.0214 108.003 76.5458 107.719 76.0089C107.434 75.472 107.258 74.8843 107.201 74.2794C107.143 73.6744 107.205 73.064 107.384 72.4831C107.562 71.9022 107.853 71.3622 108.24 70.8937C108.627 70.4253 109.103 70.0377 109.64 69.7531C110.177 69.4685 110.765 69.2924 111.37 69.2349C111.974 69.1774 112.585 69.2396 113.166 69.418L135.283 76.2102C135.97 76.4211 136.598 76.789 137.118 77.2847C137.638 77.7804 138.036 78.3904 138.279 79.0663C138.522 79.7423 138.605 80.4656 138.52 81.1789C138.436 81.8923 138.186 82.5762 137.791 83.1764Z" fill="#424242"/>
</g>
<defs>
<clipPath id="clip0_19_440">
<rect width="148.077" height="148.077" fill="white" transform="translate(0 50.156) rotate(-19.7986)"/>
</clipPath>
</defs>
</svg>
