<svg width="134" height="134" viewBox="0 0 134 134" fill="none" xmlns="http://www.w3.org/2000/svg">
<g clip-path="url(#clip0_19_442)">
<path d="M98.6887 95.8257C114.749 78.1858 113.466 50.8162 95.8259 34.7559C78.1858 18.696 50.816 19.9789 34.7559 37.6189C18.6958 55.2588 19.9788 82.6287 37.6189 98.6889C55.2588 114.749 82.6287 113.466 98.6887 95.8257ZM122.485 67.222C123.227 66.4068 123.615 65.3302 123.564 64.229C123.512 63.1277 123.025 62.0921 122.21 61.3499C121.806 60.9824 121.334 60.698 120.82 60.5129C120.307 60.3278 119.762 60.2456 119.217 60.2712C118.671 60.2967 118.136 60.4294 117.642 60.6617C117.148 60.894 116.705 61.2213 116.337 61.625C115.97 62.0286 115.685 62.5007 115.5 63.0143C115.315 63.5278 115.233 64.0728 115.259 64.6181C115.284 65.1634 115.417 65.6984 115.649 66.1924C115.881 66.6864 116.209 67.1298 116.612 67.4973C117.016 67.8649 117.488 68.1493 118.002 68.3344C118.515 68.5195 119.06 68.6016 119.606 68.5761C120.151 68.5506 120.686 68.4179 121.18 68.1856C121.674 67.9533 122.117 67.626 122.485 67.2223L122.485 67.222ZM72.274 122.372C73.0162 121.557 73.4042 120.481 73.3526 119.379C73.3009 118.278 72.8139 117.243 71.9988 116.5C71.5951 116.133 71.123 115.848 70.6095 115.663C70.0959 115.478 69.5509 115.396 69.0056 115.422C68.4603 115.447 67.9254 115.58 67.4314 115.812C66.9373 116.044 66.4939 116.372 66.1264 116.775C65.7588 117.179 65.4743 117.651 65.2892 118.165C65.1041 118.678 65.022 119.223 65.0475 119.769C65.073 120.314 65.2057 120.849 65.438 121.343C65.6703 121.837 65.9976 122.28 66.4013 122.648C66.805 123.015 67.2771 123.3 67.7907 123.485C68.3043 123.67 68.8493 123.752 69.3946 123.727C69.94 123.701 70.4749 123.568 70.969 123.336C71.463 123.104 71.9064 122.776 72.2739 122.373L72.274 122.372ZM96.2331 93.59C81.3812 109.903 56.1674 111.085 39.8546 96.2332C23.5417 81.3813 22.3597 56.1675 37.2116 39.8546C52.0635 23.5417 77.2773 22.3598 93.5901 37.2116C109.903 52.0633 111.085 77.2772 96.2331 93.59ZM87.7467 96.7633C87.8083 96.6984 87.8664 96.634 87.9214 96.5706C88.6521 95.727 88.7877 95.0063 88.0635 94.5679C81.006 90.756 74.9001 85.5151 71.7357 78.4331C69.3639 79.4406 66.7441 79.7117 64.2163 79.2113C63.8945 86.1481 64.545 94.0105 65.5847 99.574C67.0534 107.433 83.8647 100.847 87.7465 96.7627L87.7467 96.7633ZM99.3544 82.8101C104.401 77.417 104.953 60.2725 101.514 62.1629C94.6807 66.3713 87.085 69.0396 79.3657 68.2355C79.0732 70.7172 78.0538 73.1331 76.2907 75.1373C82.1375 78.8845 89.2723 82.2523 94.6104 84.1338C96.4893 84.7961 98.068 84.1849 99.3544 82.8101ZM53.0624 99.7515C53.1957 99.5996 53.2695 99.3917 53.2752 99.1223C53.0473 91.1072 54.5324 83.2015 59.0796 76.9209C58.7549 76.678 58.4419 76.4198 58.1416 76.1473C56.539 74.6901 55.3374 72.8459 54.6518 70.7913C48.483 73.9812 41.9988 78.4762 37.6998 82.1589C30.6587 88.1907 50.7558 102.377 53.0623 99.7516L53.0624 99.7515ZM96.2255 50.8131C102.138 44.1801 80.2765 29.5046 80.1754 34.3132C80.4035 42.3323 78.9174 50.2418 74.3649 56.5236C76.4298 58.0664 77.9741 60.2032 78.791 62.6479C84.9624 59.4576 91.4505 54.9606 95.7509 51.2766C95.9194 51.1329 96.078 50.978 96.2255 50.8129L96.2255 50.8131ZM73.6914 73.0673C75.1082 71.5112 75.9082 69.6195 76.1072 67.6848C75.3652 67.5107 74.6311 67.3044 73.9071 67.0665C73.8321 68.6857 73.2174 70.2878 72.0486 71.5716C71.9438 71.6867 71.8352 71.7964 71.7246 71.9028C72.2935 72.3549 72.89 72.8062 73.5129 73.2546C73.5723 73.1921 73.6333 73.1316 73.6917 73.0675L73.6914 73.0673ZM70.5794 75.3289C70.3601 74.6023 70.1723 73.8666 70.0167 73.1237C68.3843 73.9575 66.4858 74.1353 64.7349 73.6385C64.6243 74.3835 64.5316 75.131 64.4568 75.8804C66.5018 76.3876 68.6579 76.1935 70.5794 75.3292L70.5794 75.3289ZM75.7857 64.1053C75.3174 62.4888 74.4094 60.975 73.0674 59.7532C72.8027 59.5122 72.5278 59.2908 72.2454 59.0857C71.7334 59.63 71.1931 60.1585 70.6225 60.669C70.9586 60.8844 71.2761 61.1276 71.5717 61.396C72.6613 62.3881 73.3745 63.6462 73.7039 64.9855C74.4047 64.7087 75.0989 64.4151 75.7857 64.1053ZM69.5928 69.3357C71.0495 67.7357 70.9357 65.3087 69.3357 63.852C67.7357 62.3952 65.3087 62.509 63.852 64.109C62.3953 65.709 62.509 68.1361 64.109 69.5928C65.7091 71.0495 68.1361 70.9357 69.5928 69.3357ZM62.8197 72.7739C62.4896 72.5614 62.1724 72.321 61.8732 72.0486C60.7818 71.0549 60.0678 69.7946 59.7393 68.4531C59.0384 68.7299 58.3442 69.0234 57.6572 69.3333C58.1246 70.9526 59.0333 72.4684 60.3771 73.6918C60.6411 73.9322 60.9153 74.1531 61.1975 74.3584C61.709 73.8136 62.249 73.2848 62.8195 72.7741L62.8197 72.7739ZM68.7149 59.8075C68.8254 59.0626 68.9182 58.3151 68.9931 57.5657C66.9495 57.0578 64.7946 57.2501 62.8733 58.112C63.0923 58.8386 63.2799 59.5744 63.4356 60.3172C65.068 59.4861 66.9656 59.3098 68.7147 59.8074L68.7149 59.8075ZM59.538 66.3666C59.6158 64.7512 60.2302 63.1535 61.3961 61.8729C61.5036 61.7549 61.6152 61.6432 61.7288 61.5341C61.1599 61.082 60.5633 60.6306 59.9403 60.1819C59.8779 60.2469 59.8143 60.3102 59.7533 60.3772C58.3392 61.9304 57.5398 63.818 57.339 65.7487C58.0807 65.9226 58.8145 66.1286 59.5383 66.3663L59.538 66.3666ZM69.2343 54.2344C69.5573 47.2946 68.9062 39.4266 67.8659 33.8601C66.0642 24.2192 41.1749 36.3156 45.3874 38.8673C52.4469 42.6796 58.5536 47.9225 61.7176 55.0074C64.0891 54.0024 66.7078 53.7331 69.2342 54.2345L69.2343 54.2344ZM54.08 65.1991C54.3744 62.7176 55.3962 60.302 57.1618 58.2985C51.3146 54.5509 44.1792 51.1829 38.8404 49.3012C29.5903 46.0409 27.6213 73.644 31.9373 71.2713C38.7687 67.0639 46.3624 64.397 54.08 65.1991ZM67.3702 16.6125C67.7377 16.2088 68.0221 15.7368 68.2072 15.2232C68.3923 14.7096 68.4745 14.1646 68.4489 13.6193C68.4234 13.074 68.2907 12.5391 68.0584 12.0451C67.8261 11.5511 67.4988 11.1076 67.0951 10.7401C66.6915 10.3725 66.2193 10.088 65.7057 9.90291C65.1921 9.71779 64.647 9.63567 64.1017 9.66124C63.5563 9.68681 63.0213 9.81956 62.5272 10.0519C62.0332 10.2843 61.5898 10.6117 61.2223 11.0154C60.8547 11.4191 60.5703 11.8912 60.3853 12.4048C60.2002 12.9184 60.1182 13.4634 60.1438 14.0087C60.1693 14.554 60.3021 15.0889 60.5344 15.5829C60.7667 16.0769 61.0941 16.5203 61.4978 16.8878C62.313 17.63 63.3896 18.0179 64.4909 17.9663C65.5921 17.9147 66.6277 17.4277 67.3699 16.6125L67.3702 16.6125ZM16.9224 72.0229C17.29 71.6193 17.5744 71.1472 17.7595 70.6336C17.9446 70.12 18.0267 69.575 18.0012 69.0297C17.9757 68.4844 17.843 67.9495 17.6107 67.4555C17.3784 66.9615 17.0511 66.518 16.6474 66.1505C16.2438 65.783 15.7717 65.4985 15.2581 65.3134C14.7445 65.1283 14.1995 65.0461 13.6542 65.0716C13.1089 65.0972 12.5739 65.2299 12.0799 65.4622C11.5859 65.6944 11.1424 66.0218 10.7749 66.4254C10.4073 66.8291 10.1229 67.3012 9.93778 67.8148C9.75268 68.3284 9.67058 68.8734 9.69614 69.4188C9.72171 69.9641 9.85444 70.4991 10.0868 70.9931C10.3191 71.4871 10.6465 71.9306 11.0502 72.2981C11.8654 73.0402 12.942 73.4282 14.0433 73.3766C15.1445 73.3249 16.1801 72.838 16.9223 72.0228L16.9224 72.0229Z" fill="#424242"/>
</g>
<defs>
<clipPath id="clip0_19_442">
<rect width="94.4633" height="94.4633" fill="white" transform="translate(133.445 63.5944) rotate(132.316)"/>
</clipPath>
</defs>
</svg>
