<svg width="234" height="213" viewBox="0 0 234 213" fill="none" xmlns="http://www.w3.org/2000/svg">
<g filter="url(#filter0_d_12_155)">
<rect x="8" y="4" width="218" height="197" rx="15" fill="#EDF6FF"/>
</g>
<g clip-path="url(#clip0_12_155)">
<path d="M83.8859 43C77.3241 43 72.4685 48.7658 72.6859 55.0186C72.8948 61.0257 72.6235 68.8065 70.6725 75.1513C68.7157 81.5146 65.4059 85.5455 60 86.0632V91.9061C65.4059 92.4238 68.7157 96.4547 70.6725 102.818C72.6235 109.163 72.8948 116.943 72.6859 122.951C72.4685 129.203 77.3241 134.969 83.8868 134.969H151.123C157.685 134.969 162.539 129.204 162.322 122.951C162.113 116.944 162.384 109.163 164.335 102.818C166.293 96.4552 169.594 92.4234 175 91.9061V86.0632C169.594 85.5455 166.293 81.5146 164.336 75.1513C162.384 68.8074 162.113 61.0261 162.322 55.0186C162.539 48.7667 157.685 43 151.123 43H83.885H83.8859ZM137.966 99.6129C137.966 108.223 131.57 113.444 120.954 113.444H102.882C102.365 113.444 101.869 113.238 101.504 112.871C101.138 112.504 100.933 112.007 100.933 111.488V66.4816C100.933 66.2246 100.983 65.9701 101.081 65.7327C101.179 65.4952 101.323 65.2794 101.504 65.0977C101.685 64.9159 101.899 64.7718 102.136 64.6734C102.372 64.575 102.626 64.5244 102.882 64.5244H120.85C129.702 64.5244 135.511 69.3386 135.511 76.7293C135.511 81.9169 131.603 86.5611 126.625 87.3742V87.6453C133.403 88.3916 137.966 93.1039 137.966 99.6129ZM118.982 70.7276H108.679V85.3394H117.358C124.066 85.3394 127.766 82.6272 127.766 77.7792C127.766 73.2364 124.584 70.7276 118.982 70.7276ZM108.679 91.1372V107.239H119.362C126.346 107.239 130.047 104.426 130.047 99.1376C130.047 93.8485 126.244 91.1363 118.913 91.1363H108.679V91.1372Z" fill="#7E13F8"/>
</g>
<path d="M51.9113 162.544C53.1699 162.779 54.2046 163.408 55.0153 164.432C55.8259 165.456 56.2313 166.629 56.2313 167.952C56.2313 169.147 55.9326 170.203 55.3353 171.12C54.7593 172.016 53.9166 172.72 52.8073 173.232C51.6979 173.744 50.3859 174 48.8713 174H39.2393V151.664H48.4553C49.9699 151.664 51.2713 151.909 52.3593 152.4C53.4686 152.891 54.3006 153.573 54.8553 154.448C55.4313 155.323 55.7193 156.315 55.7193 157.424C55.7193 158.725 55.3673 159.813 54.6632 160.688C53.9806 161.563 53.0633 162.181 51.9113 162.544ZM43.7193 160.88H47.8153C48.8819 160.88 49.7033 160.645 50.2793 160.176C50.8553 159.685 51.1433 158.992 51.1433 158.096C51.1433 157.2 50.8553 156.507 50.2793 156.016C49.7033 155.525 48.8819 155.28 47.8153 155.28H43.7193V160.88ZM48.2313 170.352C49.3193 170.352 50.1619 170.096 50.7593 169.584C51.3779 169.072 51.6873 168.347 51.6873 167.408C51.6873 166.448 51.3673 165.701 50.7273 165.168C50.0873 164.613 49.2233 164.336 48.1353 164.336H43.7193V170.352H48.2313ZM67.6738 174.288C65.9671 174.288 64.4311 173.915 63.0658 173.168C61.7004 172.4 60.6231 171.323 59.8338 169.936C59.0658 168.549 58.6818 166.949 58.6818 165.136C58.6818 163.323 59.0764 161.723 59.8658 160.336C60.6764 158.949 61.7751 157.883 63.1618 157.136C64.5484 156.368 66.0951 155.984 67.8018 155.984C69.5084 155.984 71.0551 156.368 72.4418 157.136C73.8284 157.883 74.9164 158.949 75.7058 160.336C76.5164 161.723 76.9218 163.323 76.9218 165.136C76.9218 166.949 76.5058 168.549 75.6737 169.936C74.8631 171.323 73.7538 172.4 72.3458 173.168C70.9591 173.915 69.4018 174.288 67.6738 174.288ZM67.6738 170.384C68.4844 170.384 69.2418 170.192 69.9458 169.808C70.6711 169.403 71.2471 168.805 71.6738 168.016C72.1004 167.227 72.3138 166.267 72.3138 165.136C72.3138 163.451 71.8658 162.16 70.9698 161.264C70.0951 160.347 69.0178 159.888 67.7378 159.888C66.4578 159.888 65.3804 160.347 64.5058 161.264C63.6524 162.16 63.2258 163.451 63.2258 165.136C63.2258 166.821 63.6418 168.123 64.4738 169.04C65.3271 169.936 66.3938 170.384 67.6738 170.384ZM88.08 174.288C86.3733 174.288 84.8373 173.915 83.472 173.168C82.1067 172.4 81.0293 171.323 80.24 169.936C79.472 168.549 79.088 166.949 79.088 165.136C79.088 163.323 79.4827 161.723 80.272 160.336C81.0827 158.949 82.1813 157.883 83.568 157.136C84.9547 156.368 86.5013 155.984 88.208 155.984C89.9147 155.984 91.4613 156.368 92.848 157.136C94.2347 157.883 95.3227 158.949 96.112 160.336C96.9227 161.723 97.328 163.323 97.328 165.136C97.328 166.949 96.912 168.549 96.08 169.936C95.2693 171.323 94.16 172.4 92.752 173.168C91.3653 173.915 89.808 174.288 88.08 174.288ZM88.08 170.384C88.8907 170.384 89.648 170.192 90.352 169.808C91.0773 169.403 91.6533 168.805 92.08 168.016C92.5067 167.227 92.72 166.267 92.72 165.136C92.72 163.451 92.272 162.16 91.376 161.264C90.5013 160.347 89.424 159.888 88.144 159.888C86.864 159.888 85.7867 160.347 84.912 161.264C84.0587 162.16 83.632 163.451 83.632 165.136C83.632 166.821 84.048 168.123 84.88 169.04C85.7333 169.936 86.8 170.384 88.08 170.384ZM105.83 159.952V168.528C105.83 169.125 105.969 169.563 106.246 169.84C106.545 170.096 107.036 170.224 107.718 170.224H109.798V174H106.982C103.206 174 101.318 172.165 101.318 168.496V159.952H99.2063V156.272H101.318V151.888H105.83V156.272H109.798V159.952H105.83ZM119.805 174.288C118.354 174.288 117.053 174.032 115.901 173.52C114.749 172.987 113.831 172.272 113.149 171.376C112.487 170.48 112.125 169.488 112.061 168.4H116.573C116.658 169.083 116.989 169.648 117.565 170.096C118.162 170.544 118.898 170.768 119.773 170.768C120.626 170.768 121.287 170.597 121.757 170.256C122.247 169.915 122.493 169.477 122.493 168.944C122.493 168.368 122.194 167.941 121.597 167.664C121.021 167.365 120.093 167.045 118.812 166.704C117.49 166.384 116.402 166.053 115.549 165.712C114.717 165.371 113.991 164.848 113.373 164.144C112.775 163.44 112.477 162.491 112.477 161.296C112.477 160.315 112.754 159.419 113.309 158.608C113.885 157.797 114.695 157.157 115.741 156.688C116.807 156.219 118.055 155.984 119.485 155.984C121.597 155.984 123.282 156.517 124.541 157.584C125.799 158.629 126.493 160.048 126.621 161.84H122.333C122.269 161.136 121.97 160.581 121.437 160.176C120.925 159.749 120.231 159.536 119.357 159.536C118.546 159.536 117.917 159.685 117.469 159.984C117.042 160.283 116.829 160.699 116.829 161.232C116.829 161.829 117.127 162.288 117.725 162.608C118.322 162.907 119.25 163.216 120.509 163.536C121.789 163.856 122.845 164.187 123.677 164.528C124.509 164.869 125.223 165.403 125.821 166.128C126.439 166.832 126.759 167.771 126.781 168.944C126.781 169.968 126.493 170.885 125.917 171.696C125.362 172.507 124.551 173.147 123.485 173.616C122.439 174.064 121.213 174.288 119.805 174.288ZM135.674 159.952V168.528C135.674 169.125 135.813 169.563 136.09 169.84C136.389 170.096 136.879 170.224 137.562 170.224H139.642V174H136.826C133.05 174 131.162 172.165 131.162 168.496V159.952H129.05V156.272H131.162V151.888H135.674V156.272H139.642V159.952H135.674ZM147.344 159.024C147.92 158.085 148.667 157.349 149.584 156.816C150.523 156.283 151.59 156.016 152.784 156.016V160.72H151.6C150.192 160.72 149.126 161.051 148.4 161.712C147.696 162.373 147.344 163.525 147.344 165.168V174H142.864V156.272H147.344V159.024ZM154.65 165.072C154.65 163.28 155.002 161.691 155.706 160.304C156.431 158.917 157.402 157.851 158.618 157.104C159.855 156.357 161.231 155.984 162.746 155.984C164.068 155.984 165.22 156.251 166.202 156.784C167.204 157.317 168.004 157.989 168.602 158.8V156.272H173.114V174H168.602V171.408C168.026 172.24 167.226 172.933 166.202 173.488C165.199 174.021 164.036 174.288 162.714 174.288C161.22 174.288 159.855 173.904 158.618 173.136C157.402 172.368 156.431 171.291 155.706 169.904C155.002 168.496 154.65 166.885 154.65 165.072ZM168.602 165.136C168.602 164.048 168.388 163.12 167.962 162.352C167.535 161.563 166.959 160.965 166.234 160.56C165.508 160.133 164.73 159.92 163.898 159.92C163.066 159.92 162.298 160.123 161.594 160.528C160.89 160.933 160.314 161.531 159.866 162.32C159.439 163.088 159.226 164.005 159.226 165.072C159.226 166.139 159.439 167.077 159.866 167.888C160.314 168.677 160.89 169.285 161.594 169.712C162.319 170.139 163.087 170.352 163.898 170.352C164.73 170.352 165.508 170.149 166.234 169.744C166.959 169.317 167.535 168.72 167.962 167.952C168.388 167.163 168.602 166.224 168.602 165.136ZM181.969 158.832C182.545 158.021 183.335 157.349 184.337 156.816C185.361 156.261 186.524 155.984 187.825 155.984C189.34 155.984 190.705 156.357 191.921 157.104C193.159 157.851 194.129 158.917 194.833 160.304C195.559 161.669 195.921 163.259 195.921 165.072C195.921 166.885 195.559 168.496 194.833 169.904C194.129 171.291 193.159 172.368 191.921 173.136C190.705 173.904 189.34 174.288 187.825 174.288C186.524 174.288 185.372 174.021 184.369 173.488C183.388 172.955 182.588 172.283 181.969 171.472V182.448H177.489V156.272H181.969V158.832ZM191.345 165.072C191.345 164.005 191.121 163.088 190.673 162.32C190.247 161.531 189.671 160.933 188.945 160.528C188.241 160.123 187.473 159.92 186.641 159.92C185.831 159.92 185.063 160.133 184.337 160.56C183.633 160.965 183.057 161.563 182.609 162.352C182.183 163.141 181.969 164.069 181.969 165.136C181.969 166.203 182.183 167.131 182.609 167.92C183.057 168.709 183.633 169.317 184.337 169.744C185.063 170.149 185.831 170.352 186.641 170.352C187.473 170.352 188.241 170.139 188.945 169.712C189.671 169.285 190.247 168.677 190.673 167.888C191.121 167.099 191.345 166.16 191.345 165.072Z" fill="#424242"/>
<defs>
<filter id="filter0_d_12_155" x="0" y="0" width="234" height="213" filterUnits="userSpaceOnUse" color-interpolation-filters="sRGB">
<feFlood flood-opacity="0" result="BackgroundImageFix"/>
<feColorMatrix in="SourceAlpha" type="matrix" values="0 0 0 0 0 0 0 0 0 0 0 0 0 0 0 0 0 0 127 0" result="hardAlpha"/>
<feOffset dy="4"/>
<feGaussianBlur stdDeviation="4"/>
<feComposite in2="hardAlpha" operator="out"/>
<feColorMatrix type="matrix" values="0 0 0 0 0 0 0 0 0 0 0 0 0 0 0 0 0 0 0.25 0"/>
<feBlend mode="normal" in2="BackgroundImageFix" result="effect1_dropShadow_12_155"/>
<feBlend mode="normal" in="SourceGraphic" in2="effect1_dropShadow_12_155" result="shape"/>
</filter>
<clipPath id="clip0_12_155">
<rect width="115" height="92" fill="white" transform="translate(60 43)"/>
</clipPath>
</defs>
</svg>
