<svg width="234" height="213" viewBox="0 0 234 213" fill="none" xmlns="http://www.w3.org/2000/svg">
<g filter="url(#filter0_d_12_134)">
<rect x="8" y="4" width="218" height="197" rx="15" fill="#EDF6FF"/>
</g>
<path d="M155.452 63.2649L118.849 42.1977C118.243 41.8188 117.409 41.6672 116.5 41.6672C115.591 41.6672 114.757 41.8946 114.151 42.1977L77.7758 63.3407C76.4875 64.0985 75.5781 65.993 75.5781 67.4329V109.643C75.5781 110.477 75.7297 111.462 76.3359 112.295L157.27 65.311C156.816 64.4016 156.134 63.7196 155.452 63.2649Z" fill="#659AD3"/>
<path d="M76.1086 112.219C76.4875 112.826 77.018 113.356 77.5484 113.659L114.075 134.802C114.681 135.181 115.515 135.333 116.424 135.333C117.334 135.333 118.167 135.105 118.773 134.802L155.148 113.659C156.437 112.902 157.346 111.007 157.346 109.567V67.357C157.346 66.675 157.27 65.9171 156.891 65.2351L76.1086 112.219Z" fill="#03599C"/>
<path d="M132.641 97.6695C129.459 103.277 123.396 107.066 116.5 107.066C106.27 107.066 97.9336 98.7305 97.9336 88.5C97.9336 78.2695 106.27 69.9336 116.5 69.9336C123.396 69.9336 129.459 73.7227 132.641 79.4062L142.493 73.7227C137.34 64.7047 127.64 58.5664 116.5 58.5664C99.9797 58.5664 86.5664 71.9797 86.5664 88.5C86.5664 105.02 99.9797 118.434 116.5 118.434C127.564 118.434 137.264 112.371 142.417 103.429L132.641 97.6695Z" fill="white"/>
<path d="M106.339 162.8C106.339 160.603 106.829 158.64 107.811 156.912C108.813 155.163 110.168 153.808 111.875 152.848C113.603 151.867 115.533 151.376 117.667 151.376C120.163 151.376 122.349 152.016 124.227 153.296C126.104 154.576 127.416 156.347 128.163 158.608H123.011C122.499 157.541 121.773 156.741 120.835 156.208C119.917 155.675 118.851 155.408 117.635 155.408C116.333 155.408 115.171 155.717 114.147 156.336C113.144 156.933 112.355 157.787 111.779 158.896C111.224 160.005 110.947 161.307 110.947 162.8C110.947 164.272 111.224 165.573 111.779 166.704C112.355 167.813 113.144 168.677 114.147 169.296C115.171 169.893 116.333 170.192 117.635 170.192C118.851 170.192 119.917 169.925 120.835 169.392C121.773 168.837 122.499 168.027 123.011 166.96H128.163C127.416 169.243 126.104 171.024 124.227 172.304C122.371 173.563 120.184 174.192 117.667 174.192C115.533 174.192 113.603 173.712 111.875 172.752C110.168 171.771 108.813 170.416 107.811 168.688C106.829 166.96 106.339 164.997 106.339 162.8Z" fill="#424242"/>
<defs>
<filter id="filter0_d_12_134" x="0" y="0" width="234" height="213" filterUnits="userSpaceOnUse" color-interpolation-filters="sRGB">
<feFlood flood-opacity="0" result="BackgroundImageFix"/>
<feColorMatrix in="SourceAlpha" type="matrix" values="0 0 0 0 0 0 0 0 0 0 0 0 0 0 0 0 0 0 127 0" result="hardAlpha"/>
<feOffset dy="4"/>
<feGaussianBlur stdDeviation="4"/>
<feComposite in2="hardAlpha" operator="out"/>
<feColorMatrix type="matrix" values="0 0 0 0 0 0 0 0 0 0 0 0 0 0 0 0 0 0 0.25 0"/>
<feBlend mode="normal" in2="BackgroundImageFix" result="effect1_dropShadow_12_134"/>
<feBlend mode="normal" in="SourceGraphic" in2="effect1_dropShadow_12_134" result="shape"/>
</filter>
</defs>
</svg>
