<svg width="79" height="79" viewBox="0 0 79 79" fill="none" xmlns="http://www.w3.org/2000/svg">
<path d="M19.75 55.9583C19.75 49.375 32.9167 45.7542 39.5 45.7542C46.0833 45.7542 59.25 49.375 59.25 55.9583V59.25H19.75M49.375 29.625C49.375 32.244 48.3346 34.7558 46.4827 36.6077C44.6308 38.4596 42.119 39.5 39.5 39.5C36.881 39.5 34.3692 38.4596 32.5173 36.6077C30.6654 34.7558 29.625 32.244 29.625 29.625C29.625 27.006 30.6654 24.4942 32.5173 22.6423C34.3692 20.7904 36.881 19.75 39.5 19.75C42.119 19.75 44.6308 20.7904 46.4827 22.6423C48.3346 24.4942 49.375 27.006 49.375 29.625ZM9.875 16.4583V62.5417C9.875 64.2877 10.5686 65.9622 11.8032 67.1968C13.0378 68.4314 14.7123 69.125 16.4583 69.125H62.5417C64.2877 69.125 65.9622 68.4314 67.1968 67.1968C68.4314 65.9622 69.125 64.2877 69.125 62.5417V16.4583C69.125 14.7123 68.4314 13.0378 67.1968 11.8032C65.9622 10.5686 64.2877 9.875 62.5417 9.875H16.4583C14.7123 9.875 13.0378 10.5686 11.8032 11.8032C10.5686 13.0378 9.875 14.7123 9.875 16.4583Z" fill="#424242"/>
</svg>
