<svg width="60" height="60" viewBox="0 0 60 60" fill="none" xmlns="http://www.w3.org/2000/svg">
<rect width="60" height="60" rx="10" fill="#424242"/>
<path d="M30.5 7.58334C27.4905 7.58334 24.5105 8.17609 21.7302 9.32776C18.9498 10.4794 16.4235 12.1675 14.2955 14.2955C9.99776 18.5932 7.58333 24.4221 7.58333 30.5C7.58333 40.6292 14.1604 49.2229 23.2583 52.2708C24.4042 52.4542 24.7708 51.7437 24.7708 51.125V47.2521C18.4229 48.6271 17.0708 44.1812 17.0708 44.1812C16.0167 41.5229 14.5271 40.8125 14.5271 40.8125C12.4417 39.3917 14.6875 39.4375 14.6875 39.4375C16.9792 39.5979 18.1937 41.7979 18.1937 41.7979C20.1875 45.2812 23.5562 44.25 24.8625 43.7C25.0687 42.2104 25.6646 41.2021 26.3062 40.6292C21.2187 40.0563 15.8792 38.0854 15.8792 29.3542C15.8792 26.8104 16.75 24.7708 18.2396 23.1438C18.0104 22.5708 17.2083 20.1875 18.4687 17.0938C18.4687 17.0938 20.3937 16.475 24.7708 19.4313C26.5812 18.9271 28.5521 18.675 30.5 18.675C32.4479 18.675 34.4187 18.9271 36.2292 19.4313C40.6062 16.475 42.5312 17.0938 42.5312 17.0938C43.7917 20.1875 42.9896 22.5708 42.7604 23.1438C44.25 24.7708 45.1208 26.8104 45.1208 29.3542C45.1208 38.1083 39.7583 40.0333 34.6479 40.6063C35.4729 41.3167 36.2292 42.7146 36.2292 44.8458V51.125C36.2292 51.7437 36.5958 52.4771 37.7646 52.2708C46.8625 49.2 53.4167 40.6292 53.4167 30.5C53.4167 27.4905 52.8239 24.5105 51.6722 21.7302C50.5206 18.9498 48.8325 16.4235 46.7045 14.2955C44.5765 12.1675 42.0502 10.4794 39.2698 9.32776C36.4894 8.17609 33.5095 7.58334 30.5 7.58334Z" fill="#EDF6FF"/>
</svg>
