<svg width="34" height="34" viewBox="0 0 34 34" fill="none" xmlns="http://www.w3.org/2000/svg">
<path d="M17 2.83325C15.1396 2.83325 13.2974 3.19968 11.5787 3.91163C9.85987 4.62357 8.29815 5.66708 6.98266 6.98257C4.32589 9.63934 2.83334 13.2427 2.83334 16.9999C2.83334 23.2616 6.89917 28.5741 12.5233 30.4583C13.2317 30.5716 13.4583 30.1324 13.4583 29.7499V27.3558C9.53417 28.2058 8.69834 25.4574 8.69834 25.4574C8.04667 23.8141 7.12584 23.3749 7.12584 23.3749C5.83667 22.4966 7.225 22.5249 7.225 22.5249C8.64167 22.6241 9.3925 23.9841 9.3925 23.9841C10.625 26.1374 12.7075 25.4999 13.515 25.1599C13.6425 24.2391 14.0108 23.6158 14.4075 23.2616C11.2625 22.9074 7.96167 21.6891 7.96167 16.2916C7.96167 14.7191 8.5 13.4583 9.42084 12.4524C9.27917 12.0983 8.78334 10.6249 9.5625 8.71242C9.5625 8.71242 10.7525 8.32992 13.4583 10.1574C14.5775 9.84575 15.7958 9.68992 17 9.68992C18.2042 9.68992 19.4225 9.84575 20.5417 10.1574C23.2475 8.32992 24.4375 8.71242 24.4375 8.71242C25.2167 10.6249 24.7208 12.0983 24.5792 12.4524C25.5 13.4583 26.0383 14.7191 26.0383 16.2916C26.0383 21.7033 22.7233 22.8933 19.5642 23.2474C20.0742 23.6866 20.5417 24.5508 20.5417 25.8683V29.7499C20.5417 30.1324 20.7683 30.5858 21.4908 30.4583C27.115 28.5599 31.1667 23.2616 31.1667 16.9999C31.1667 15.1395 30.8002 13.2973 30.0883 11.5786C29.3764 9.85979 28.3328 8.29807 27.0173 6.98257C25.7019 5.66708 24.1401 4.62357 22.4214 3.91163C20.7026 3.19968 18.8604 2.83325 17 2.83325Z" fill="#424242"/>
</svg>
