<svg width="234" height="213" viewBox="0 0 234 213" fill="none" xmlns="http://www.w3.org/2000/svg">
<g filter="url(#filter0_d_12_166)">
<rect x="8" y="4" width="218" height="197" rx="15" fill="#EDF6FF"/>
</g>
<g clip-path="url(#clip0_12_166)">
<path d="M143.562 39H90.4375C77.4933 39 67 49.4933 67 62.4375V115.562C67 128.507 77.4933 139 90.4375 139H143.562C156.507 139 167 128.507 167 115.562V62.4375C167 49.4933 156.507 39 143.562 39Z" fill="#F03C2E"/>
<mask id="mask0_12_166" style="mask-type:luminance" maskUnits="userSpaceOnUse" x="77" y="49" width="80" height="80">
<path d="M77.9375 49.9375H156.062V128.062H77.9375V49.9375Z" fill="white"/>
</mask>
<g mask="url(#mask0_12_166)">
<path d="M154.588 85.521L120.479 51.412C119.776 50.7079 118.88 50.2284 117.904 50.0342C116.928 49.84 115.916 49.9398 114.997 50.321C114.386 50.5739 113.832 50.9446 113.365 51.412L106.285 58.4921L115.269 67.4764C117.359 66.744 119.752 67.2444 121.417 68.9096C122.209 69.7037 122.762 70.7046 123.013 71.7981C123.264 72.8916 123.202 74.0336 122.835 75.0936L131.495 83.7534C133.59 83.0307 136.007 83.4968 137.679 85.1741C138.516 86.0114 139.087 87.0785 139.318 88.2401C139.549 89.4018 139.43 90.6058 138.976 91.6999C138.368 93.1667 137.202 94.3319 135.735 94.9393C134.268 95.5468 132.619 95.5468 131.152 94.9393C130.426 94.6382 129.765 94.1971 129.21 93.6409C127.452 91.8831 127.017 89.2952 127.906 87.1296L119.83 79.0534V100.306C120.416 100.596 120.952 100.979 121.417 101.439C122.539 102.562 123.17 104.085 123.17 105.672C123.17 107.26 122.539 108.783 121.417 109.906C120.294 111.029 118.771 111.659 117.183 111.659C115.595 111.659 114.073 111.029 112.95 109.906C112.112 109.069 111.541 108.002 111.31 106.84C111.079 105.679 111.197 104.475 111.651 103.381C111.952 102.654 112.393 101.994 112.95 101.439C113.528 100.863 114.171 100.426 114.91 100.133V78.6823C114.176 78.3822 113.51 77.9382 112.95 77.3764C112.109 76.5367 111.538 75.4657 111.308 74.3C111.079 73.1342 111.201 71.9265 111.661 70.8307L102.799 61.9737L79.41 85.3378C78.7059 86.0414 78.2264 86.9381 78.032 87.9143C77.8377 88.8906 77.9373 89.9025 78.3182 90.8221C78.5714 91.4327 78.9424 91.9874 79.41 92.4546L113.521 126.561C113.988 127.028 114.543 127.399 115.153 127.652C116.386 128.162 117.771 128.162 119.004 127.652C119.614 127.399 120.168 127.028 120.635 126.561L154.588 92.662C155.056 92.1948 155.426 91.6401 155.68 91.0296C155.933 90.4191 156.063 89.7647 156.063 89.1038C156.063 88.4428 155.933 87.7883 155.68 87.1777C155.427 86.5671 155.056 86.0123 154.588 85.5452" fill="white"/>
</g>
</g>
<path d="M75.1038 158.384C74.5918 157.445 73.8878 156.731 72.9918 156.24C72.0958 155.749 71.0504 155.504 69.8558 155.504C68.5331 155.504 67.3598 155.803 66.3358 156.4C65.3118 156.997 64.5118 157.851 63.9358 158.96C63.3598 160.069 63.0718 161.349 63.0718 162.8C63.0718 164.293 63.3598 165.595 63.9358 166.704C64.5331 167.813 65.3544 168.667 66.3998 169.264C67.4451 169.861 68.6611 170.16 70.0478 170.16C71.7544 170.16 73.1518 169.712 74.2397 168.816C75.3278 167.899 76.0424 166.629 76.3838 165.008H68.7038V161.584H80.7998V165.488C80.5011 167.045 79.8611 168.485 78.8798 169.808C77.8984 171.131 76.6291 172.197 75.0718 173.008C73.5358 173.797 71.8078 174.192 69.8878 174.192C67.7331 174.192 65.7811 173.712 64.0318 172.752C62.3038 171.771 60.9384 170.416 59.9358 168.688C58.9544 166.96 58.4638 164.997 58.4638 162.8C58.4638 160.603 58.9544 158.64 59.9358 156.912C60.9384 155.163 62.3038 153.808 64.0318 152.848C65.7811 151.867 67.7224 151.376 69.8558 151.376C72.3731 151.376 74.5598 151.995 76.4158 153.232C78.2718 154.448 79.5518 156.165 80.2558 158.384H75.1038ZM86.3863 154.16C85.5969 154.16 84.9356 153.915 84.4023 153.424C83.8903 152.912 83.6343 152.283 83.6343 151.536C83.6343 150.789 83.8903 150.171 84.4023 149.68C84.9356 149.168 85.5969 148.912 86.3863 148.912C87.1756 148.912 87.8263 149.168 88.3383 149.68C88.8716 150.171 89.1383 150.789 89.1383 151.536C89.1383 152.283 88.8716 152.912 88.3383 153.424C87.8263 153.915 87.1756 154.16 86.3863 154.16ZM88.5943 156.272V174H84.1143V156.272H88.5943ZM98.2365 159.952V168.528C98.2365 169.125 98.3752 169.563 98.6525 169.84C98.9512 170.096 99.4418 170.224 100.125 170.224H102.205V174H99.3885C95.6125 174 93.7245 172.165 93.7245 168.496V159.952H91.6125V156.272H93.7245V151.888H98.2365V156.272H102.205V159.952H98.2365ZM133.116 151.664L124.924 174H119.484L111.292 151.664H116.092L122.236 169.424L128.348 151.664H133.116ZM134.714 162.8C134.714 160.603 135.204 158.64 136.186 156.912C137.188 155.163 138.543 153.808 140.25 152.848C141.978 151.867 143.908 151.376 146.042 151.376C148.538 151.376 150.724 152.016 152.602 153.296C154.479 154.576 155.791 156.347 156.538 158.608H151.386C150.874 157.541 150.148 156.741 149.21 156.208C148.292 155.675 147.226 155.408 146.01 155.408C144.708 155.408 143.546 155.717 142.522 156.336C141.519 156.933 140.73 157.787 140.154 158.896C139.599 160.005 139.322 161.307 139.322 162.8C139.322 164.272 139.599 165.573 140.154 166.704C140.73 167.813 141.519 168.677 142.522 169.296C143.546 169.893 144.708 170.192 146.01 170.192C147.226 170.192 148.292 169.925 149.21 169.392C150.148 168.837 150.874 168.027 151.386 166.96H156.538C155.791 169.243 154.479 171.024 152.602 172.304C150.746 173.563 148.559 174.192 146.042 174.192C143.908 174.192 141.978 173.712 140.25 172.752C138.543 171.771 137.188 170.416 136.186 168.688C135.204 166.96 134.714 164.997 134.714 162.8ZM168.076 174.224C166.519 174.224 165.111 173.957 163.852 173.424C162.615 172.891 161.634 172.123 160.908 171.12C160.183 170.117 159.81 168.933 159.788 167.568H164.588C164.652 168.485 164.972 169.211 165.548 169.744C166.146 170.277 166.956 170.544 167.98 170.544C169.026 170.544 169.847 170.299 170.444 169.808C171.042 169.296 171.34 168.635 171.34 167.824C171.34 167.163 171.138 166.619 170.732 166.192C170.327 165.765 169.815 165.435 169.196 165.2C168.599 164.944 167.767 164.667 166.7 164.368C165.25 163.941 164.066 163.525 163.148 163.12C162.252 162.693 161.474 162.064 160.812 161.232C160.172 160.379 159.852 159.248 159.852 157.84C159.852 156.517 160.183 155.365 160.844 154.384C161.506 153.403 162.434 152.656 163.628 152.144C164.823 151.611 166.188 151.344 167.724 151.344C170.028 151.344 171.895 151.909 173.324 153.04C174.775 154.149 175.575 155.707 175.724 157.712H170.796C170.754 156.944 170.423 156.315 169.804 155.824C169.207 155.312 168.407 155.056 167.404 155.056C166.53 155.056 165.826 155.28 165.292 155.728C164.78 156.176 164.524 156.827 164.524 157.68C164.524 158.277 164.716 158.779 165.1 159.184C165.506 159.568 165.996 159.888 166.572 160.144C167.17 160.379 168.002 160.656 169.068 160.976C170.519 161.403 171.703 161.829 172.62 162.256C173.538 162.683 174.327 163.323 174.988 164.176C175.65 165.029 175.98 166.149 175.98 167.536C175.98 168.731 175.671 169.84 175.052 170.864C174.434 171.888 173.527 172.709 172.332 173.328C171.138 173.925 169.719 174.224 168.076 174.224Z" fill="#424242"/>
<defs>
<filter id="filter0_d_12_166" x="0" y="0" width="234" height="213" filterUnits="userSpaceOnUse" color-interpolation-filters="sRGB">
<feFlood flood-opacity="0" result="BackgroundImageFix"/>
<feColorMatrix in="SourceAlpha" type="matrix" values="0 0 0 0 0 0 0 0 0 0 0 0 0 0 0 0 0 0 127 0" result="hardAlpha"/>
<feOffset dy="4"/>
<feGaussianBlur stdDeviation="4"/>
<feComposite in2="hardAlpha" operator="out"/>
<feColorMatrix type="matrix" values="0 0 0 0 0 0 0 0 0 0 0 0 0 0 0 0 0 0 0.25 0"/>
<feBlend mode="normal" in2="BackgroundImageFix" result="effect1_dropShadow_12_166"/>
<feBlend mode="normal" in="SourceGraphic" in2="effect1_dropShadow_12_166" result="shape"/>
</filter>
<clipPath id="clip0_12_166">
<rect width="100" height="100" fill="white" transform="translate(67 39)"/>
</clipPath>
</defs>
</svg>
