<svg width="60" height="60" viewBox="0 0 60 60" fill="none" xmlns="http://www.w3.org/2000/svg">
<rect width="60" height="60" rx="10" fill="#424242"/>
<path d="M48.8333 44.25H44.25V24.1979L30.5 32.7917L16.75 24.1979V44.25H12.1667V16.75H14.9167L30.5 26.4896L46.0833 16.75H48.8333M48.8333 12.1667H12.1667C9.62293 12.1667 7.58334 14.2062 7.58334 16.75V44.25C7.58334 45.4656 8.06623 46.6314 8.92577 47.4909C9.78531 48.3504 10.9511 48.8333 12.1667 48.8333H48.8333C50.0489 48.8333 51.2147 48.3504 52.0742 47.4909C52.9338 46.6314 53.4167 45.4656 53.4167 44.25V16.75C53.4167 15.5344 52.9338 14.3686 52.0742 13.5091C51.2147 12.6495 50.0489 12.1667 48.8333 12.1667Z" fill="#EDF6FF"/>
</svg>
