<svg width="30" height="30" viewBox="0 0 30 30" fill="none" xmlns="http://www.w3.org/2000/svg">
<circle cx="15" cy="15" r="15" fill="white"/>
<path d="M22.3333 20.4998H20.5V12.479L15 15.9165L9.50001 12.479V20.4998H7.66668V9.49984H8.76668L15 13.3957L21.2333 9.49984H22.3333M22.3333 7.6665H7.66668C6.64918 7.6665 5.83334 8.48234 5.83334 9.49984V20.4998C5.83334 20.9861 6.0265 21.4524 6.37031 21.7962C6.71413 22.14 7.18045 22.3332 7.66668 22.3332H22.3333C22.8196 22.3332 23.2859 22.14 23.6297 21.7962C23.9735 21.4524 24.1667 20.9861 24.1667 20.4998V9.49984C24.1667 9.01361 23.9735 8.54729 23.6297 8.20347C23.2859 7.85966 22.8196 7.6665 22.3333 7.6665Z" fill="#6DAFFE"/>
</svg>
