<svg width="234" height="213" viewBox="0 0 234 213" fill="none" xmlns="http://www.w3.org/2000/svg">
<g filter="url(#filter0_d_12_103)">
<rect x="8" y="4" width="218" height="197" rx="15" fill="#EDF6FF"/>
</g>
<path d="M84.8316 124.738L77.5623 43.2068H157.438L150.16 124.726L117.451 133.793L84.8316 124.738Z" fill="#E44D26"/>
<path d="M117.5 126.863L143.931 119.534L150.15 49.873H117.5V126.863Z" fill="#F16529"/>
<path d="M117.5 80.1118H104.268L103.354 69.8716H117.5V59.8727H92.4256L92.6654 62.5551L95.1226 90.1115H117.5V80.1118ZM117.5 106.081L117.456 106.094L106.32 103.086L105.608 95.1117H95.5694L96.9702 110.812L117.454 116.498L117.5 116.486V106.081Z" fill="#EBEBEB"/>
<path d="M117.465 80.1118V90.1115H129.778L128.618 103.08L117.465 106.09V116.494L137.965 110.812L138.115 109.123L140.465 82.7972L140.709 80.1118H138.014H117.465ZM117.465 59.8727V69.8716H141.619L141.819 67.6251L142.276 62.5551L142.515 59.8727H117.465Z" fill="white"/>
<path d="M85.0016 151.664V174H80.5216V164.496H70.9536V174H66.4736V151.664H70.9536V160.848H80.5216V151.664H85.0016ZM104.611 151.664V155.28H98.6591V174H94.1791V155.28H88.2271V151.664H104.611ZM132.232 151.664V174H127.752V159.472L121.768 174H118.376L112.36 159.472V174H107.88V151.664H112.968L120.072 168.272L127.176 151.664H132.232ZM141.141 170.448H148.501V174H136.661V151.664H141.141V170.448ZM166.517 154.544H156.149V160.016C156.597 159.461 157.237 159.013 158.069 158.672C158.901 158.309 159.786 158.128 160.725 158.128C162.431 158.128 163.829 158.501 164.917 159.248C166.005 159.995 166.794 160.955 167.285 162.128C167.775 163.28 168.021 164.517 168.021 165.84C168.021 168.293 167.317 170.267 165.909 171.76C164.522 173.253 162.538 174 159.957 174C157.525 174 155.583 173.392 154.133 172.176C152.682 170.96 151.861 169.371 151.669 167.408H156.021C156.213 168.261 156.639 168.944 157.301 169.456C157.983 169.968 158.847 170.224 159.893 170.224C161.151 170.224 162.101 169.829 162.741 169.04C163.381 168.251 163.701 167.205 163.701 165.904C163.701 164.581 163.37 163.579 162.709 162.896C162.069 162.192 161.119 161.84 159.861 161.84C158.965 161.84 158.218 162.064 157.621 162.512C157.023 162.96 156.597 163.557 156.341 164.304H152.053V150.608H166.517V154.544Z" fill="#424242"/>
<defs>
<filter id="filter0_d_12_103" x="0" y="0" width="234" height="213" filterUnits="userSpaceOnUse" color-interpolation-filters="sRGB">
<feFlood flood-opacity="0" result="BackgroundImageFix"/>
<feColorMatrix in="SourceAlpha" type="matrix" values="0 0 0 0 0 0 0 0 0 0 0 0 0 0 0 0 0 0 127 0" result="hardAlpha"/>
<feOffset dy="4"/>
<feGaussianBlur stdDeviation="4"/>
<feComposite in2="hardAlpha" operator="out"/>
<feColorMatrix type="matrix" values="0 0 0 0 0 0 0 0 0 0 0 0 0 0 0 0 0 0 0.25 0"/>
<feBlend mode="normal" in2="BackgroundImageFix" result="effect1_dropShadow_12_103"/>
<feBlend mode="normal" in="SourceGraphic" in2="effect1_dropShadow_12_103" result="shape"/>
</filter>
</defs>
</svg>
