<svg width="40" height="39" viewBox="0 0 40 39" fill="none" xmlns="http://www.w3.org/2000/svg">
<rect x="0.5" width="39" height="39" rx="10" fill="#EDF6FF"/>
<path d="M14.0688 4.9292H26.5813C31.3479 4.9292 35.2208 8.80212 35.2208 13.5688V26.0813C35.2208 28.3726 34.3106 30.5702 32.6904 32.1904C31.0701 33.8106 28.8726 34.7209 26.5813 34.7209H14.0688C9.30209 34.7209 5.42917 30.8479 5.42917 26.0813V13.5688C5.42917 11.2774 6.33941 9.07991 7.95964 7.45967C9.57988 5.83944 11.7774 4.9292 14.0688 4.9292ZM13.7708 7.90837C12.3486 7.90837 10.9846 8.47334 9.97898 9.47901C8.97331 10.4847 8.40834 11.8486 8.40834 13.2709V26.3792C8.40834 29.3435 10.8066 31.7417 13.7708 31.7417H26.8792C28.3014 31.7417 29.6654 31.1767 30.671 30.1711C31.6767 29.1654 32.2417 27.8014 32.2417 26.3792V13.2709C32.2417 10.3066 29.8434 7.90837 26.8792 7.90837H13.7708ZM28.1453 10.1427C28.6391 10.1427 29.1127 10.3389 29.4619 10.6881C29.8111 11.0373 30.0073 11.5109 30.0073 12.0047C30.0073 12.4985 29.8111 12.9721 29.4619 13.3213C29.1127 13.6705 28.6391 13.8667 28.1453 13.8667C27.6515 13.8667 27.1779 13.6705 26.8287 13.3213C26.4795 12.9721 26.2833 12.4985 26.2833 12.0047C26.2833 11.5109 26.4795 11.0373 26.8287 10.6881C27.1779 10.3389 27.6515 10.1427 28.1453 10.1427ZM20.325 12.3771C22.3003 12.3771 24.1947 13.1618 25.5915 14.5586C26.9882 15.9553 27.7729 17.8497 27.7729 19.825C27.7729 21.8003 26.9882 23.6947 25.5915 25.0915C24.1947 26.4883 22.3003 27.2729 20.325 27.2729C18.3497 27.2729 16.4553 26.4883 15.0585 25.0915C13.6618 23.6947 12.8771 21.8003 12.8771 19.825C12.8771 17.8497 13.6618 15.9553 15.0585 14.5586C16.4553 13.1618 18.3497 12.3771 20.325 12.3771ZM20.325 15.3563C19.1398 15.3563 18.0032 15.8271 17.1651 16.6651C16.3271 17.5032 15.8563 18.6398 15.8563 19.825C15.8563 21.0102 16.3271 22.1469 17.1651 22.9849C18.0032 23.823 19.1398 24.2938 20.325 24.2938C21.5102 24.2938 22.6468 23.823 23.4849 22.9849C24.3229 22.1469 24.7938 21.0102 24.7938 19.825C24.7938 18.6398 24.3229 17.5032 23.4849 16.6651C22.6468 15.8271 21.5102 15.3563 20.325 15.3563Z" fill="#424242"/>
</svg>
