<svg width="234" height="213" viewBox="0 0 234 213" fill="none" xmlns="http://www.w3.org/2000/svg">
<g filter="url(#filter0_d_12_119)">
<rect x="8" y="4" width="218" height="197" rx="15" fill="#EDF6FF"/>
</g>
<path d="M92.3414 151.664V167.344C92.3414 169.52 91.712 171.216 90.4534 172.432C89.1947 173.627 87.5094 174.224 85.3974 174.224C83.264 174.224 81.536 173.605 80.2134 172.368C78.912 171.131 78.2614 169.403 78.2614 167.184H82.7414C82.7627 168.144 82.9867 168.891 83.4134 169.424C83.8614 169.957 84.5014 170.224 85.3334 170.224C86.144 170.224 86.7627 169.968 87.1894 169.456C87.616 168.944 87.8294 168.24 87.8294 167.344V151.664H92.3414ZM96.4154 165.072C96.4154 163.28 96.7674 161.691 97.4714 160.304C98.1967 158.917 99.1674 157.851 100.383 157.104C101.621 156.357 102.997 155.984 104.511 155.984C105.834 155.984 106.986 156.251 107.967 156.784C108.97 157.317 109.77 157.989 110.367 158.8V156.272H114.879V174H110.367V171.408C109.791 172.24 108.991 172.933 107.967 173.488C106.965 174.021 105.802 174.288 104.479 174.288C102.986 174.288 101.621 173.904 100.383 173.136C99.1674 172.368 98.1967 171.291 97.4714 169.904C96.7674 168.496 96.4154 166.885 96.4154 165.072ZM110.367 165.136C110.367 164.048 110.154 163.12 109.727 162.352C109.301 161.563 108.725 160.965 107.999 160.56C107.274 160.133 106.495 159.92 105.663 159.92C104.831 159.92 104.063 160.123 103.359 160.528C102.655 160.933 102.079 161.531 101.631 162.32C101.205 163.088 100.991 164.005 100.991 165.072C100.991 166.139 101.205 167.077 101.631 167.888C102.079 168.677 102.655 169.285 103.359 169.712C104.085 170.139 104.853 170.352 105.663 170.352C106.495 170.352 107.274 170.149 107.999 169.744C108.725 169.317 109.301 168.72 109.727 167.952C110.154 167.163 110.367 166.224 110.367 165.136ZM126.647 169.872L131.127 156.272H135.895L129.335 174H123.895L117.367 156.272H122.167L126.647 169.872ZM137.259 165.072C137.259 163.28 137.611 161.691 138.315 160.304C139.04 158.917 140.011 157.851 141.227 157.104C142.464 156.357 143.84 155.984 145.355 155.984C146.678 155.984 147.83 156.251 148.811 156.784C149.814 157.317 150.614 157.989 151.211 158.8V156.272H155.723V174H151.211V171.408C150.635 172.24 149.835 172.933 148.811 173.488C147.808 174.021 146.646 174.288 145.323 174.288C143.83 174.288 142.464 173.904 141.227 173.136C140.011 172.368 139.04 171.291 138.315 169.904C137.611 168.496 137.259 166.885 137.259 165.072ZM151.211 165.136C151.211 164.048 150.998 163.12 150.571 162.352C150.144 161.563 149.568 160.965 148.843 160.56C148.118 160.133 147.339 159.92 146.507 159.92C145.675 159.92 144.907 160.123 144.203 160.528C143.499 160.933 142.923 161.531 142.475 162.32C142.048 163.088 141.835 164.005 141.835 165.072C141.835 166.139 142.048 167.077 142.475 167.888C142.923 168.677 143.499 169.285 144.203 169.712C144.928 170.139 145.696 170.352 146.507 170.352C147.339 170.352 148.118 170.149 148.843 169.744C149.568 169.317 150.144 168.72 150.571 167.952C150.998 167.163 151.211 166.224 151.211 165.136Z" fill="#424242"/>
<g clip-path="url(#clip0_12_119)">
<path d="M102.088 113.354C102.088 113.354 97.7574 115.86 105.17 116.709C114.151 117.728 118.74 117.582 128.637 115.718C128.637 115.718 131.239 117.341 134.872 118.748C112.687 128.212 84.6626 118.2 102.088 113.354ZM99.3771 101.004C99.3771 101.004 94.5198 104.583 101.938 105.346C111.531 106.331 119.107 106.412 132.216 103.9C132.216 103.9 134.029 105.729 136.88 106.73C110.057 114.537 80.1811 107.346 99.3771 101.004Z" fill="#5382A1"/>
<path d="M122.231 80.0554C127.698 86.3194 120.795 91.9563 120.795 91.9563C120.795 91.9563 134.675 84.8246 128.3 75.8936C122.347 67.5656 117.781 63.4271 142.498 49.1597C142.498 49.1597 103.701 58.8042 122.231 80.0554Z" fill="#E76F00"/>
<path d="M151.573 122.488C151.573 122.488 154.777 125.116 148.043 127.15C135.238 131.011 94.7449 132.177 83.4962 127.304C79.4527 125.553 87.0356 123.123 89.4208 122.613C91.9083 122.076 93.3301 122.176 93.3301 122.176C88.8331 119.023 64.2638 128.368 80.8502 131.043C126.083 138.345 163.305 127.756 151.573 122.488ZM104.17 88.2089C104.17 88.2089 83.5736 93.0783 96.8768 94.8462C102.494 95.5947 113.691 95.4255 124.121 94.5555C132.645 93.8403 141.204 92.3184 141.204 92.3184C141.204 92.3184 138.199 93.5996 136.024 95.0774C115.108 100.553 74.7021 98.0056 86.3344 92.4049C96.1719 87.672 104.17 88.2089 104.17 88.2089ZM141.119 108.765C162.382 97.7682 152.551 87.2004 145.689 88.6243C144.007 88.9724 143.257 89.2742 143.257 89.2742C143.257 89.2742 143.882 88.301 145.074 87.8797C158.649 83.1294 169.089 101.889 140.692 109.319C140.692 109.32 141.021 109.027 141.119 108.765Z" fill="#5382A1"/>
<path d="M128.3 26.1212C128.3 26.1212 140.076 37.8457 117.132 55.8738C98.7336 70.3359 112.937 78.5816 117.124 88.0027C106.385 78.3585 98.5033 69.8685 103.791 61.967C111.551 50.3675 133.051 44.7443 128.3 26.1212Z" fill="#E76F00"/>
<path d="M106.26 138.564C126.669 139.864 158.009 137.843 158.751 128.231C158.751 128.231 157.325 131.875 141.884 134.768C124.465 138.031 102.981 137.65 90.2378 135.559C90.2381 135.559 92.8461 137.708 106.26 138.564Z" fill="#5382A1"/>
</g>
<defs>
<filter id="filter0_d_12_119" x="0" y="0" width="234" height="213" filterUnits="userSpaceOnUse" color-interpolation-filters="sRGB">
<feFlood flood-opacity="0" result="BackgroundImageFix"/>
<feColorMatrix in="SourceAlpha" type="matrix" values="0 0 0 0 0 0 0 0 0 0 0 0 0 0 0 0 0 0 127 0" result="hardAlpha"/>
<feOffset dy="4"/>
<feGaussianBlur stdDeviation="4"/>
<feComposite in2="hardAlpha" operator="out"/>
<feColorMatrix type="matrix" values="0 0 0 0 0 0 0 0 0 0 0 0 0 0 0 0 0 0 0.25 0"/>
<feBlend mode="normal" in2="BackgroundImageFix" result="effect1_dropShadow_12_119"/>
<feBlend mode="normal" in="SourceGraphic" in2="effect1_dropShadow_12_119" result="shape"/>
</filter>
<clipPath id="clip0_12_119">
<rect width="84" height="113" fill="white" transform="translate(75 26)"/>
</clipPath>
</defs>
</svg>
