<svg width="60" height="60" viewBox="0 0 60 60" fill="none" xmlns="http://www.w3.org/2000/svg">
<rect width="60" height="60" rx="10" fill="#424242"/>
<path d="M45.5417 9.875C46.7572 9.875 47.923 10.3579 48.7826 11.2174C49.6421 12.077 50.125 13.2428 50.125 14.4583V46.5417C50.125 47.7572 49.6421 48.923 48.7826 49.7826C47.923 50.6421 46.7572 51.125 45.5417 51.125H13.4583C12.2428 51.125 11.077 50.6421 10.2174 49.7826C9.35789 48.923 8.875 47.7572 8.875 46.5417V14.4583C8.875 13.2428 9.35789 12.077 10.2174 11.2174C11.077 10.3579 12.2428 9.875 13.4583 9.875H45.5417ZM44.3958 45.3958V33.25C44.3958 31.2686 43.6087 29.3684 42.2077 27.9673C40.8066 26.5663 38.9064 25.7792 36.925 25.7792C34.9771 25.7792 32.7083 26.9708 31.6083 28.7583V26.2146H25.2146V45.3958H31.6083V34.0979C31.6083 32.3333 33.0292 30.8896 34.7938 30.8896C35.6447 30.8896 36.4607 31.2276 37.0624 31.8293C37.6641 32.431 38.0021 33.247 38.0021 34.0979V45.3958H44.3958ZM17.7667 22.6167C18.7878 22.6167 19.767 22.211 20.489 21.489C21.211 20.767 21.6167 19.7878 21.6167 18.7667C21.6167 16.6354 19.8979 14.8938 17.7667 14.8938C16.7395 14.8938 15.7544 15.3018 15.0281 16.0281C14.3018 16.7544 13.8938 17.7395 13.8938 18.7667C13.8938 20.8979 15.6354 22.6167 17.7667 22.6167ZM20.9521 45.3958V26.2146H14.6042V45.3958H20.9521Z" fill="#EDF6FF"/>
</svg>
