<svg width="234" height="213" viewBox="0 0 234 213" fill="none" xmlns="http://www.w3.org/2000/svg">
<g filter="url(#filter0_d_12_161)">
<rect x="8" y="4" width="218" height="197" rx="15" fill="#EDF6FF"/>
</g>
<path d="M94.935 151.664V174H90.455V159.472L84.471 174H81.079L75.063 159.472V174H70.583V151.664H75.671L82.775 168.272L89.879 151.664H94.935ZM116.324 156.272L105.348 182.384H100.58L104.42 173.552L97.3163 156.272H102.34L106.916 168.656L111.556 156.272H116.324ZM126.451 174.224C124.894 174.224 123.486 173.957 122.227 173.424C120.99 172.891 120.009 172.123 119.283 171.12C118.558 170.117 118.185 168.933 118.163 167.568H122.963C123.027 168.485 123.347 169.211 123.923 169.744C124.521 170.277 125.331 170.544 126.355 170.544C127.401 170.544 128.222 170.299 128.819 169.808C129.417 169.296 129.715 168.635 129.715 167.824C129.715 167.163 129.513 166.619 129.107 166.192C128.702 165.765 128.19 165.435 127.571 165.2C126.974 164.944 126.142 164.667 125.075 164.368C123.625 163.941 122.441 163.525 121.523 163.12C120.627 162.693 119.849 162.064 119.187 161.232C118.547 160.379 118.227 159.248 118.227 157.84C118.227 156.517 118.558 155.365 119.219 154.384C119.881 153.403 120.809 152.656 122.003 152.144C123.198 151.611 124.563 151.344 126.099 151.344C128.403 151.344 130.27 151.909 131.699 153.04C133.15 154.149 133.95 155.707 134.099 157.712H129.171C129.129 156.944 128.798 156.315 128.179 155.824C127.582 155.312 126.782 155.056 125.779 155.056C124.905 155.056 124.201 155.28 123.667 155.728C123.155 156.176 122.899 156.827 122.899 157.68C122.899 158.277 123.091 158.779 123.475 159.184C123.881 159.568 124.371 159.888 124.947 160.144C125.545 160.379 126.377 160.656 127.443 160.976C128.894 161.403 130.078 161.829 130.995 162.256C131.913 162.683 132.702 163.323 133.363 164.176C134.025 165.029 134.355 166.149 134.355 167.536C134.355 168.731 134.046 169.84 133.427 170.864C132.809 171.888 131.902 172.709 130.707 173.328C129.513 173.925 128.094 174.224 126.451 174.224ZM137.087 165.104C137.087 163.333 137.45 161.765 138.175 160.4C138.922 159.013 139.925 157.936 141.183 157.168C142.442 156.4 143.829 156.016 145.343 156.016C146.602 156.016 147.711 156.261 148.671 156.752C149.653 157.221 150.442 157.829 151.039 158.576V156.272H155.551V182.448H151.039V171.568C150.442 172.336 149.642 172.976 148.639 173.488C147.637 174 146.506 174.256 145.247 174.256C143.754 174.256 142.378 173.872 141.119 173.104C139.882 172.315 138.901 171.227 138.175 169.84C137.45 168.453 137.087 166.875 137.087 165.104ZM151.039 165.136C151.039 164.048 150.815 163.109 150.367 162.32C149.919 161.531 149.333 160.933 148.607 160.528C147.903 160.123 147.146 159.92 146.335 159.92C145.546 159.92 144.789 160.123 144.063 160.528C143.359 160.933 142.783 161.531 142.335 162.32C141.887 163.088 141.663 164.016 141.663 165.104C141.663 166.192 141.887 167.141 142.335 167.952C142.783 168.741 143.359 169.339 144.063 169.744C144.789 170.149 145.546 170.352 146.335 170.352C147.146 170.352 147.903 170.149 148.607 169.744C149.333 169.339 149.919 168.741 150.367 167.952C150.815 167.163 151.039 166.224 151.039 165.136ZM164.407 150.32V174H159.927V150.32H164.407Z" fill="#424242"/>
<g clip-path="url(#clip0_12_161)">
<path d="M83.6792 100.226L88.7545 116.717C89.8948 120.462 90.3703 123.076 90.1798 124.566C92.9556 117.121 94.895 109.007 95.9984 100.226H102.101C99.4771 114.522 96.016 124.911 91.72 131.391C88.3729 136.386 84.706 138.882 80.713 138.882C79.6484 138.882 78.3359 138.56 76.7784 137.921V134.475C77.5394 134.586 78.4321 134.646 79.4589 134.646C81.3217 134.646 82.823 134.129 83.9653 133.097C85.3329 131.84 86.0176 130.427 86.0176 128.861C86.0176 127.791 85.4836 125.596 84.4206 122.276L77.3492 100.226H83.6792ZM44.8364 90.0898L54.1323 118.494H54.1897L63.5427 90.0898H71.1842C72.8575 104.176 73.8458 117.065 74.1492 128.747H67.7066C67.4799 117.826 66.852 107.557 65.8252 97.9379H65.7691L55.9585 128.747H51.0523L41.301 97.9379H41.2436C40.5202 107.176 40.0648 117.445 39.875 128.747H34C34.3797 115.002 35.3298 102.117 36.8504 90.0898H44.8364Z" fill="#00758F"/>
<path d="M148.975 89.5162C158.974 89.5162 163.974 95.9139 163.974 108.703C163.974 115.653 162.471 120.902 159.466 124.449C158.925 125.097 158.326 125.657 157.696 126.176L164.772 129.679L164.766 129.679L162.253 134.024L153.038 128.639C151.51 129.092 149.83 129.319 147.998 129.319C143.088 129.319 139.421 127.886 136.996 125.023C134.334 121.857 133.004 116.872 133.004 110.077C133.004 103.166 134.505 97.9368 137.511 94.3859C140.248 91.1377 144.07 89.5162 148.975 89.5162ZM118.354 89.5724C121.928 89.5724 125.177 90.5301 128.105 92.4387L126.618 95.7565C124.113 94.6903 121.644 94.1549 119.209 94.1549C117.233 94.1549 115.71 94.6312 114.649 95.5896C113.581 96.5394 112.921 97.7618 112.921 99.2519C112.921 101.542 114.55 103.527 117.558 105.205C118.543 105.744 119.525 106.29 120.503 106.842L120.728 106.968L120.84 107.032L121.065 107.158L121.177 107.221L121.402 107.348C123.678 108.634 125.821 109.86 125.821 109.86C128.828 111.998 130.327 114.278 130.327 118.032C130.327 121.31 129.127 124.002 126.736 126.108C124.343 128.204 121.128 129.255 117.101 129.255C113.336 129.255 109.686 128.045 106.151 125.646L107.805 122.325C110.847 123.852 113.6 124.615 116.072 124.615C118.39 124.615 120.205 124.096 121.518 123.073C122.828 122.041 123.613 120.603 123.613 118.78C123.613 116.484 122.019 114.522 119.094 112.876C118.179 112.37 117.266 111.858 116.356 111.342L116.132 111.215C115.72 110.982 115.306 110.746 114.9 110.515L114.68 110.39C112.705 109.265 110.997 108.282 110.997 108.282C108.073 106.14 106.607 103.842 106.607 100.055C106.607 96.9239 107.701 94.3927 109.884 92.4671C112.073 90.5373 114.896 89.5724 118.354 89.5724ZM175.726 90.0898V123.992H187.872V128.747H169.566V90.0898H175.726ZM194.621 124.007V124.81H193.286V128.743H192.265V124.81H190.878V124.007H194.621H194.621ZM197.087 124.007L198.369 127.235L199.547 124.007H200.994V128.743H200.032V125.138L198.691 128.743H197.998L196.655 125.138H196.603V128.743H195.693V124.007H197.087H197.087ZM148.346 94.2702C142.453 94.2702 139.506 99.1405 139.506 108.875C139.506 114.451 140.287 118.494 141.846 121.014C143.29 123.346 145.552 124.51 148.632 124.51C154.525 124.51 157.473 119.602 157.473 109.79C157.473 104.292 156.692 100.283 155.134 97.7621C153.688 95.435 151.427 94.2702 148.346 94.2702H148.346Z" fill="#F29111"/>
<path d="M132.901 27.3953C134.856 22.5851 141.691 26.2279 144.343 27.9082C144.993 28.3286 145.739 29.2167 146.484 29.545C147.647 29.5907 148.809 29.6819 149.974 29.7305C152.158 30.2447 154.205 30.6647 155.926 31.6466C163.927 36.3651 169.135 41.1733 173.928 49.1154C174.952 50.7977 175.464 52.6181 176.3 54.4385C177.461 57.1519 178.766 60.0003 180.114 62.5661C180.717 63.7826 181.184 65.1352 182.022 66.1625C182.349 66.6322 183.278 66.7707 183.834 67.0513C185.369 67.8474 187.23 68.4517 188.674 69.3859C191.371 71.0701 193.979 73.077 196.35 75.1316C197.233 75.9247 197.835 77.0474 198.677 77.8862V78.3096C197.93 78.5392 197.185 78.7744 196.44 78.9629C194.812 79.3816 193.37 79.2869 191.791 79.706C190.815 79.9895 189.603 80.3635 188.58 80.4586L188.674 80.554C189.276 82.277 192.534 83.6783 194.024 84.7089C195.834 86.0168 197.511 87.603 198.86 89.4247C199.326 89.8895 199.792 90.3126 200.256 90.7761C200.581 91.2458 200.672 91.8533 201 92.2721V92.4139C200.637 92.2855 200.375 92.0405 200.128 91.7844L199.98 91.6299C199.832 91.4764 199.683 91.3255 199.513 91.201C198.486 90.4987 197.467 89.6586 196.44 89.0056C194.675 87.8839 192.627 87.2329 190.815 86.107C189.79 85.4533 188.813 84.7089 187.836 83.9609C186.951 83.3053 185.976 82.0464 185.419 81.1122C185.091 80.5961 185.046 79.9895 184.672 79.6161C184.739 78.9926 185.309 78.8074 185.885 78.6552L186.017 78.6202C186.216 78.5686 186.41 78.517 186.58 78.4487C188.998 77.4204 191.881 77.0474 195.604 77.1408C195.464 76.2046 193.138 75.0382 192.395 74.4777C190.904 73.4017 189.326 72.279 187.745 71.2997C186.907 70.7869 185.463 70.4125 184.534 69.9934C183.278 69.4793 180.487 68.9655 179.791 67.9862C178.608 66.4425 177.759 64.6011 176.934 62.7412L176.71 62.2336C176.635 62.0644 176.56 61.8953 176.485 61.7263C175.51 59.4865 174.3 57.1513 173.323 54.8579C172.812 53.7391 172.577 52.7572 172.018 51.6842C168.623 45.0996 163.599 39.5868 157.508 35.7098C155.506 34.4483 153.275 33.2809 150.811 32.4874C149.414 32.0651 147.738 32.2986 146.251 31.9746H145.272C144.436 31.7388 143.738 30.8516 143.086 30.3838C141.646 29.4045 140.204 28.747 138.482 28.0483C137.878 27.768 136.155 27.1154 135.554 27.6292C135.181 27.723 134.992 27.8637 134.901 28.2381C134.53 28.7966 134.856 29.6381 135.087 30.1532C135.785 31.646 136.761 32.5332 137.647 33.7947C138.435 34.9134 139.414 36.175 139.973 37.3914C141.178 40.0062 141.739 42.9032 142.857 45.5177C143.271 46.5009 143.926 47.6197 144.529 48.5066C145.04 49.2105 145.97 49.7194 146.251 50.6105C146.811 51.5447 145.412 54.6273 145.088 55.6062C143.876 59.4368 144.111 64.7615 145.506 68.0819L145.581 68.257L145.655 68.4343C146.165 69.6505 146.71 70.96 148.065 71.3C148.158 71.2073 148.065 71.2559 148.249 71.2073C148.577 68.6372 148.67 66.1622 149.554 64.1513C150.065 62.8941 151.086 62.0053 151.786 60.9789C152.252 61.2586 152.252 62.1016 152.53 62.6595C153.135 64.1066 153.785 65.6931 154.532 67.1444C156.063 70.1332 157.787 73.0309 159.74 75.6454C160.394 76.5793 161.321 77.6073 162.158 78.4484C162.531 78.7741 162.949 78.9622 163.229 79.3813H163.32V79.5224C161.925 79.0073 161.04 77.5615 159.927 76.7175C157.832 75.131 155.323 72.7484 153.879 70.4622C153.275 69.1497 152.622 67.8918 151.97 66.5858V66.4914C151.692 66.8645 151.786 67.2349 151.646 67.7993C151.042 70.1332 151.507 72.7957 149.414 73.6352C147.042 74.6184 145.272 72.0487 144.529 70.8809C142.156 67.0049 141.506 60.4661 143.179 55.1878C143.551 54.0194 143.602 52.6181 144.251 51.6852C144.111 50.8418 143.462 50.6111 143.086 50.0944C142.435 49.2111 141.878 48.1822 141.368 47.2013C140.389 45.2852 139.692 42.9957 138.949 40.9407C138.622 40.1016 138.528 39.2592 138.202 38.4648C137.647 37.2522 136.622 36.0358 135.832 34.9631C134.762 33.4213 131.645 30.4332 132.901 27.3953ZM148.157 36.5464C148.281 36.6711 148.431 36.7802 148.586 36.8877L148.774 37.0164C149.023 37.1895 149.265 37.3718 149.413 37.6201C149.648 37.9487 149.692 38.273 149.973 38.6023C149.973 39.725 149.648 40.4714 148.992 40.9365C148.992 40.9365 148.947 40.9855 148.901 41.0312C148.529 40.2829 148.204 39.5385 147.829 38.7908C147.368 38.1381 146.716 37.6204 146.34 36.8746H146.25V36.7809C146.811 36.6421 147.368 36.5464 148.157 36.5464Z" fill="#00758F"/>
</g>
<defs>
<filter id="filter0_d_12_161" x="0" y="0" width="234" height="213" filterUnits="userSpaceOnUse" color-interpolation-filters="sRGB">
<feFlood flood-opacity="0" result="BackgroundImageFix"/>
<feColorMatrix in="SourceAlpha" type="matrix" values="0 0 0 0 0 0 0 0 0 0 0 0 0 0 0 0 0 0 127 0" result="hardAlpha"/>
<feOffset dy="4"/>
<feGaussianBlur stdDeviation="4"/>
<feComposite in2="hardAlpha" operator="out"/>
<feColorMatrix type="matrix" values="0 0 0 0 0 0 0 0 0 0 0 0 0 0 0 0 0 0 0.25 0"/>
<feBlend mode="normal" in2="BackgroundImageFix" result="effect1_dropShadow_12_161"/>
<feBlend mode="normal" in="SourceGraphic" in2="effect1_dropShadow_12_161" result="shape"/>
</filter>
<clipPath id="clip0_12_161">
<rect width="167" height="114" fill="white" transform="translate(34 25)"/>
</clipPath>
</defs>
</svg>
