<svg width="234" height="213" viewBox="0 0 234 213" fill="none" xmlns="http://www.w3.org/2000/svg">
<g filter="url(#filter0_d_12_145)">
<rect x="8" y="4" width="218" height="197" rx="15" fill="#EDF6FF"/>
</g>
<path d="M77.7808 174H73.3008L63.1568 158.672V174H58.6768V151.632H63.1568L73.3008 166.992V151.632H77.7808V174ZM90.08 174.288C88.3733 174.288 86.8373 173.915 85.472 173.168C84.1067 172.4 83.0293 171.323 82.24 169.936C81.472 168.549 81.088 166.949 81.088 165.136C81.088 163.323 81.4827 161.723 82.272 160.336C83.0827 158.949 84.1813 157.883 85.568 157.136C86.9547 156.368 88.5013 155.984 90.208 155.984C91.9147 155.984 93.4613 156.368 94.848 157.136C96.2347 157.883 97.3227 158.949 98.112 160.336C98.9227 161.723 99.328 163.323 99.328 165.136C99.328 166.949 98.912 168.549 98.08 169.936C97.2693 171.323 96.16 172.4 94.752 173.168C93.3653 173.915 91.808 174.288 90.08 174.288ZM90.08 170.384C90.8907 170.384 91.648 170.192 92.352 169.808C93.0773 169.403 93.6533 168.805 94.08 168.016C94.5067 167.227 94.72 166.267 94.72 165.136C94.72 163.451 94.272 162.16 93.376 161.264C92.5013 160.347 91.424 159.888 90.144 159.888C88.864 159.888 87.7867 160.347 86.912 161.264C86.0587 162.16 85.632 163.451 85.632 165.136C85.632 166.821 86.048 168.123 86.88 169.04C87.7333 169.936 88.8 170.384 90.08 170.384ZM101.462 165.072C101.462 163.28 101.814 161.691 102.518 160.304C103.244 158.917 104.225 157.851 105.462 157.104C106.7 156.357 108.076 155.984 109.59 155.984C110.742 155.984 111.841 156.24 112.886 156.752C113.932 157.243 114.764 157.904 115.382 158.736V150.32H119.926V174H115.382V171.376C114.828 172.251 114.049 172.955 113.046 173.488C112.044 174.021 110.881 174.288 109.558 174.288C108.065 174.288 106.7 173.904 105.462 173.136C104.225 172.368 103.244 171.291 102.518 169.904C101.814 168.496 101.462 166.885 101.462 165.072ZM115.414 165.136C115.414 164.048 115.201 163.12 114.774 162.352C114.348 161.563 113.772 160.965 113.046 160.56C112.321 160.133 111.542 159.92 110.71 159.92C109.878 159.92 109.11 160.123 108.406 160.528C107.702 160.933 107.126 161.531 106.678 162.32C106.252 163.088 106.038 164.005 106.038 165.072C106.038 166.139 106.252 167.077 106.678 167.888C107.126 168.677 107.702 169.285 108.406 169.712C109.132 170.139 109.9 170.352 110.71 170.352C111.542 170.352 112.321 170.149 113.046 169.744C113.772 169.317 114.348 168.72 114.774 167.952C115.201 167.163 115.414 166.224 115.414 165.136ZM140.782 164.752C140.782 165.392 140.739 165.968 140.654 166.48H127.694C127.8 167.76 128.248 168.763 129.038 169.488C129.827 170.213 130.798 170.576 131.95 170.576C133.614 170.576 134.798 169.861 135.502 168.432H140.334C139.822 170.139 138.84 171.547 137.39 172.656C135.939 173.744 134.158 174.288 132.046 174.288C130.339 174.288 128.803 173.915 127.438 173.168C126.094 172.4 125.038 171.323 124.27 169.936C123.523 168.549 123.15 166.949 123.15 165.136C123.15 163.301 123.523 161.691 124.27 160.304C125.016 158.917 126.062 157.851 127.406 157.104C128.75 156.357 130.296 155.984 132.046 155.984C133.731 155.984 135.235 156.347 136.558 157.072C137.902 157.797 138.936 158.832 139.662 160.176C140.408 161.499 140.782 163.024 140.782 164.752ZM136.142 163.472C136.12 162.32 135.704 161.403 134.894 160.72C134.083 160.016 133.091 159.664 131.918 159.664C130.808 159.664 129.87 160.005 129.102 160.688C128.355 161.349 127.896 162.277 127.726 163.472H136.142ZM157.076 151.664V167.344C157.076 169.52 156.446 171.216 155.188 172.432C153.929 173.627 152.244 174.224 150.132 174.224C147.998 174.224 146.27 173.605 144.948 172.368C143.646 171.131 142.996 169.403 142.996 167.184H147.476C147.497 168.144 147.721 168.891 148.148 169.424C148.596 169.957 149.236 170.224 150.068 170.224C150.878 170.224 151.497 169.968 151.924 169.456C152.35 168.944 152.564 168.24 152.564 167.344V151.664H157.076ZM169.086 174.288C167.635 174.288 166.334 174.032 165.182 173.52C164.03 172.987 163.112 172.272 162.43 171.376C161.768 170.48 161.406 169.488 161.342 168.4H165.854C165.939 169.083 166.27 169.648 166.846 170.096C167.443 170.544 168.179 170.768 169.054 170.768C169.907 170.768 170.568 170.597 171.038 170.256C171.528 169.915 171.774 169.477 171.774 168.944C171.774 168.368 171.475 167.941 170.878 167.664C170.302 167.365 169.374 167.045 168.094 166.704C166.771 166.384 165.683 166.053 164.83 165.712C163.998 165.371 163.272 164.848 162.654 164.144C162.056 163.44 161.758 162.491 161.758 161.296C161.758 160.315 162.035 159.419 162.59 158.608C163.166 157.797 163.976 157.157 165.022 156.688C166.088 156.219 167.336 155.984 168.766 155.984C170.878 155.984 172.563 156.517 173.822 157.584C175.08 158.629 175.774 160.048 175.902 161.84H171.614C171.55 161.136 171.251 160.581 170.718 160.176C170.206 159.749 169.512 159.536 168.638 159.536C167.827 159.536 167.198 159.685 166.75 159.984C166.323 160.283 166.11 160.699 166.11 161.232C166.11 161.829 166.408 162.288 167.006 162.608C167.603 162.907 168.531 163.216 169.79 163.536C171.07 163.856 172.126 164.187 172.958 164.528C173.79 164.869 174.504 165.403 175.102 166.128C175.72 166.832 176.04 167.771 176.062 168.944C176.062 169.968 175.774 170.885 175.198 171.696C174.643 172.507 173.832 173.147 172.766 173.616C171.72 174.064 170.494 174.288 169.086 174.288Z" fill="#424242"/>
<g clip-path="url(#clip0_12_145)">
<path d="M143.797 39H91.2031C78.3884 39 68 49.3884 68 62.2031V114.797C68 127.612 78.3884 138 91.2031 138H143.797C156.612 138 167 127.612 167 114.797V62.2031C167 49.3884 156.612 39 143.797 39Z" fill="#F4F2ED"/>
<path d="M114.359 51.0332C116.261 49.9446 118.739 49.9395 120.639 51.0332C130.199 56.4357 139.763 61.8292 149.322 67.2348C151.12 68.2476 152.322 70.2485 152.304 72.3201V104.822C152.318 106.979 150.996 109.028 149.1 110.018C139.57 115.391 130.046 120.769 120.518 126.142C118.577 127.252 116.05 127.167 114.169 125.965C111.312 124.309 108.451 122.661 105.594 121.007C105.01 120.659 104.352 120.382 103.939 119.816C104.304 119.325 104.956 119.264 105.485 119.049C106.677 118.67 107.773 118.061 108.868 117.47C109.145 117.281 109.483 117.354 109.749 117.523C112.192 118.924 114.614 120.365 117.065 121.752C117.587 122.054 118.117 121.653 118.564 121.404C127.915 116.119 137.277 110.854 146.627 105.567C146.973 105.401 147.165 105.033 147.137 104.654C147.143 93.9319 147.138 83.2086 147.14 72.4864C147.179 72.0564 146.93 71.6604 146.541 71.484C137.045 66.1361 127.554 60.7804 118.059 55.4313C117.895 55.3182 117.7 55.2574 117.5 55.2571C117.301 55.2567 117.106 55.3168 116.941 55.4294C107.446 60.7804 97.9568 66.1415 88.462 71.4887C88.0742 71.6654 87.8139 72.0548 87.8599 72.4864C87.8618 83.2086 87.8599 93.9319 87.8599 104.655C87.8434 104.84 87.8841 105.026 87.9765 105.188C88.0689 105.349 88.2085 105.478 88.3766 105.558C90.91 106.994 93.4468 108.421 95.9822 109.853C97.4107 110.622 99.1641 111.079 100.738 110.49C102.126 109.992 103.1 108.574 103.073 107.1C103.087 96.4409 103.067 85.7803 103.083 75.1223C103.048 74.6493 103.497 74.2584 103.957 74.3032C105.175 74.2947 106.394 74.2866 107.611 74.3063C108.119 74.2947 108.469 74.8044 108.406 75.2808C108.401 86.0077 108.419 96.7345 108.398 107.461C108.401 110.32 107.227 113.431 104.582 114.829C101.325 116.517 97.2986 116.159 94.0803 114.541C91.2944 113.15 88.6353 111.509 85.8989 110.019C83.997 109.035 82.6821 106.978 82.6957 104.822V72.3201C82.6756 70.2055 83.9258 68.1683 85.7798 67.1702C95.3073 61.7936 104.833 56.4124 114.359 51.0332Z" fill="#81CD39"/>
<path d="M122.671 73.5475C126.826 73.2799 131.275 73.389 135.014 75.4363C137.909 77.0048 139.514 80.2973 139.565 83.5137C139.485 83.9472 139.031 84.1866 138.617 84.1568C137.411 84.1552 136.205 84.1734 135 84.1487C134.488 84.1684 134.191 83.697 134.127 83.2449C133.78 81.7058 132.941 80.1817 131.493 79.4392C129.269 78.3262 126.691 78.3823 124.266 78.4055C122.496 78.4991 120.593 78.6526 119.093 79.6933C117.942 80.4818 117.592 82.0735 118.003 83.3555C118.391 84.2759 119.453 84.5729 120.322 84.8467C125.33 86.1565 130.637 86.0258 135.549 87.7494C137.583 88.4521 139.572 89.8183 140.268 91.9476C141.179 94.8016 140.78 98.2125 138.749 100.503C137.102 102.389 134.704 103.415 132.312 103.972C129.131 104.682 125.828 104.7 122.597 104.385C119.559 104.038 116.396 103.24 114.051 101.17C112.045 99.4283 111.065 96.7143 111.162 94.0955C111.186 93.653 111.626 93.3444 112.05 93.3808C113.264 93.3711 114.478 93.3677 115.692 93.3827C116.177 93.3479 116.537 93.7671 116.561 94.2242C116.785 95.6903 117.336 97.2294 118.615 98.0984C121.083 99.6905 124.179 99.5815 127.004 99.6259C129.345 99.5223 131.973 99.491 133.883 97.9437C134.891 97.0612 135.189 95.5847 134.917 94.3147C134.622 93.2424 133.5 92.7427 132.537 92.4159C127.593 90.8524 122.227 91.4198 117.332 89.6513C115.344 88.949 113.422 87.621 112.659 85.5791C111.593 82.6892 112.081 79.1144 114.325 76.9012C116.512 74.6988 119.669 73.8507 122.671 73.5475Z" fill="#81CD39"/>
</g>
<defs>
<filter id="filter0_d_12_145" x="0" y="0" width="234" height="213" filterUnits="userSpaceOnUse" color-interpolation-filters="sRGB">
<feFlood flood-opacity="0" result="BackgroundImageFix"/>
<feColorMatrix in="SourceAlpha" type="matrix" values="0 0 0 0 0 0 0 0 0 0 0 0 0 0 0 0 0 0 127 0" result="hardAlpha"/>
<feOffset dy="4"/>
<feGaussianBlur stdDeviation="4"/>
<feComposite in2="hardAlpha" operator="out"/>
<feColorMatrix type="matrix" values="0 0 0 0 0 0 0 0 0 0 0 0 0 0 0 0 0 0 0.25 0"/>
<feBlend mode="normal" in2="BackgroundImageFix" result="effect1_dropShadow_12_145"/>
<feBlend mode="normal" in="SourceGraphic" in2="effect1_dropShadow_12_145" result="shape"/>
</filter>
<clipPath id="clip0_12_145">
<rect width="99" height="99" fill="white" transform="translate(68 39)"/>
</clipPath>
</defs>
</svg>
