<svg width="63" height="63" viewBox="0 0 63 63" fill="none" xmlns="http://www.w3.org/2000/svg">
<mask id="mask0_13_259" style="mask-type:luminance" maskUnits="userSpaceOnUse" x="9" y="9" width="45" height="45">
<path d="M25.375 11.0833H13.125C12.5835 11.0833 12.0642 11.2984 11.6813 11.6812C11.2984 12.0641 11.0833 12.5834 11.0833 13.1249V25.3749C11.0833 25.9164 11.2984 26.4357 11.6813 26.8186C12.0642 27.2015 12.5835 27.4166 13.125 27.4166H25.375C25.9165 27.4166 26.4358 27.2015 26.8187 26.8186C27.2015 26.4357 27.4166 25.9164 27.4166 25.3749V13.1249C27.4166 12.5834 27.2015 12.0641 26.8187 11.6812C26.4358 11.2984 25.9165 11.0833 25.375 11.0833ZM25.375 35.5833H13.125C12.5835 35.5833 12.0642 35.7984 11.6813 36.1812C11.2984 36.5641 11.0833 37.0834 11.0833 37.6249V49.8749C11.0833 50.4164 11.2984 50.9357 11.6813 51.3186C12.0642 51.7015 12.5835 51.9166 13.125 51.9166H25.375C25.9165 51.9166 26.4358 51.7015 26.8187 51.3186C27.2015 50.9357 27.4166 50.4164 27.4166 49.8749V37.6249C27.4166 37.0834 27.2015 36.5641 26.8187 36.1812C26.4358 35.7984 25.9165 35.5833 25.375 35.5833ZM49.875 11.0833H37.625C37.0835 11.0833 36.5642 11.2984 36.1813 11.6812C35.7984 12.0641 35.5833 12.5834 35.5833 13.1249V25.3749C35.5833 25.9164 35.7984 26.4357 36.1813 26.8186C36.5642 27.2015 37.0835 27.4166 37.625 27.4166H49.875C50.4165 27.4166 50.9358 27.2015 51.3187 26.8186C51.7015 26.4357 51.9166 25.9164 51.9166 25.3749V13.1249C51.9166 12.5834 51.7015 12.0641 51.3187 11.6812C50.9358 11.2984 50.4165 11.0833 49.875 11.0833Z" fill="white" stroke="white" stroke-width="4" stroke-linejoin="round"/>
<path d="M35.5833 35.5833H51.9166M43.75 43.7499H51.9166M35.5833 51.9166H51.9166" stroke="white" stroke-width="4" stroke-linecap="round" stroke-linejoin="round"/>
</mask>
<g mask="url(#mask0_13_259)">
<path d="M7 7H56V56H7V7Z" fill="white"/>
</g>
</svg>
