<svg width="63" height="63" viewBox="0 0 63 63" fill="none" xmlns="http://www.w3.org/2000/svg">
<path d="M54.1406 6.89062H8.85938C7.77041 6.89062 6.89062 7.77041 6.89062 8.85938V54.1406C6.89062 55.2296 7.77041 56.1094 8.85938 56.1094H54.1406C55.2296 56.1094 56.1094 55.2296 56.1094 54.1406V8.85938C56.1094 7.77041 55.2296 6.89062 54.1406 6.89062ZM31.5677 31.8753L19.7552 41.7806C19.4353 42.0513 18.9492 41.8236 18.9492 41.4053V37.5478C18.9492 37.4062 19.0169 37.2647 19.1276 37.1725L25.8829 31.5L19.1276 25.8275C19.0711 25.7829 19.0256 25.7258 18.9946 25.6607C18.9637 25.5956 18.9482 25.5243 18.9492 25.4522V21.5947C18.9492 21.1764 19.4353 20.9487 19.7552 21.2194L31.5677 31.1186C31.8076 31.3154 31.8076 31.6784 31.5677 31.8753ZM44.0508 41.4053C44.0508 41.676 43.8416 41.8975 43.5894 41.8975H32.2075C31.9553 41.8975 31.7461 41.676 31.7461 41.4053V38.4521C31.7461 38.1814 31.9553 37.96 32.2075 37.96H43.5894C43.8416 37.96 44.0508 38.1814 44.0508 38.4521V41.4053Z" fill="white"/>
</svg>
