<svg width="234" height="213" viewBox="0 0 234 213" fill="none" xmlns="http://www.w3.org/2000/svg">
<g filter="url(#filter0_d_12_150)">
<rect x="8" y="4" width="218" height="197" rx="15" fill="#EDF6FF"/>
</g>
<g clip-path="url(#clip0_12_150)">
<path d="M143.797 39H91.2031C78.3884 39 68 49.3884 68 62.2031V114.797C68 127.612 78.3884 138 91.2031 138H143.797C156.612 138 167 127.612 167 114.797V62.2031C167 49.3884 156.612 39 143.797 39Z" fill="#007ACC"/>
<path d="M89.8925 88.8283L89.8612 92.8826H102.747V129.497H111.862V92.8826H124.747V88.9068C124.747 86.7067 124.7 84.8683 124.637 84.8211C124.59 84.7584 116.749 84.7267 107.242 84.7426L89.9401 84.7898L89.8925 88.8283ZM147.883 84.6745C150.397 85.3033 152.315 86.419 154.075 88.2416C154.986 89.2162 156.337 90.992 156.448 91.4162C156.479 91.5419 152.173 94.4334 149.565 96.0518C149.47 96.1148 149.093 95.7061 148.669 95.0777C147.396 93.2233 146.06 92.4217 144.017 92.2805C141.016 92.0759 139.083 93.6476 139.099 96.2718C139.099 97.0418 139.209 97.4973 139.523 98.1262C140.183 99.4932 141.409 100.31 145.259 101.976C152.346 105.025 155.379 107.036 157.265 109.896C159.37 113.086 159.842 118.178 158.412 121.965C156.841 126.082 152.943 128.879 147.459 129.806C145.762 130.105 141.739 130.058 139.916 129.728C135.94 129.02 132.169 127.056 129.843 124.479C128.932 123.473 127.156 120.849 127.266 120.66C127.313 120.598 127.722 120.346 128.177 120.079C128.617 119.828 130.283 118.869 131.855 117.957L134.699 116.307L135.296 117.188C136.129 118.46 137.952 120.205 139.052 120.786C142.21 122.452 146.548 122.216 148.685 120.299C149.596 119.466 149.973 118.602 149.973 117.329C149.973 116.182 149.832 115.679 149.235 114.815C148.465 113.715 146.893 112.787 142.43 110.855C137.323 108.655 135.123 107.288 133.112 105.119C131.949 103.862 130.849 101.85 130.393 100.169C130.016 98.7704 129.922 95.266 130.22 93.8518C131.273 88.9176 134.997 85.4762 140.372 84.4545C142.116 84.1246 146.17 84.2503 147.883 84.6745Z" fill="white"/>
</g>
<path d="M48.4549 151.664V155.28H42.5029V174H38.0229V155.28H32.0709V151.664H48.4549ZM68.6836 156.272L57.7076 182.384H52.9396L56.7796 173.552L49.6756 156.272H54.6996L59.2756 168.656L63.9156 156.272H68.6836ZM75.5786 158.832C76.1546 158.021 76.944 157.349 77.9466 156.816C78.9706 156.261 80.1333 155.984 81.4346 155.984C82.9493 155.984 84.3146 156.357 85.5306 157.104C86.768 157.851 87.7386 158.917 88.4426 160.304C89.168 161.669 89.5306 163.259 89.5306 165.072C89.5306 166.885 89.168 168.496 88.4426 169.904C87.7386 171.291 86.768 172.368 85.5306 173.136C84.3146 173.904 82.9493 174.288 81.4346 174.288C80.1333 174.288 78.9813 174.021 77.9786 173.488C76.9973 172.955 76.1973 172.283 75.5786 171.472V182.448H71.0986V156.272H75.5786V158.832ZM84.9546 165.072C84.9546 164.005 84.7306 163.088 84.2826 162.32C83.856 161.531 83.28 160.933 82.5546 160.528C81.8506 160.123 81.0826 159.92 80.2506 159.92C79.44 159.92 78.672 160.133 77.9466 160.56C77.2426 160.965 76.6666 161.563 76.2186 162.352C75.792 163.141 75.5786 164.069 75.5786 165.136C75.5786 166.203 75.792 167.131 76.2186 167.92C76.6666 168.709 77.2426 169.317 77.9466 169.744C78.672 170.149 79.44 170.352 80.2506 170.352C81.0826 170.352 81.8506 170.139 82.5546 169.712C83.28 169.285 83.856 168.677 84.2826 167.888C84.7306 167.099 84.9546 166.16 84.9546 165.072ZM109.266 164.752C109.266 165.392 109.223 165.968 109.138 166.48H96.1781C96.2848 167.76 96.7328 168.763 97.5221 169.488C98.3115 170.213 99.2821 170.576 100.434 170.576C102.098 170.576 103.282 169.861 103.986 168.432H108.818C108.306 170.139 107.325 171.547 105.874 172.656C104.423 173.744 102.642 174.288 100.53 174.288C98.8235 174.288 97.2875 173.915 95.9221 173.168C94.5781 172.4 93.5221 171.323 92.7541 169.936C92.0075 168.549 91.6341 166.949 91.6341 165.136C91.6341 163.301 92.0075 161.691 92.7541 160.304C93.5008 158.917 94.5461 157.851 95.8901 157.104C97.2341 156.357 98.7808 155.984 100.53 155.984C102.215 155.984 103.719 156.347 105.042 157.072C106.386 157.797 107.421 158.832 108.146 160.176C108.893 161.499 109.266 163.024 109.266 164.752ZM104.626 163.472C104.605 162.32 104.189 161.403 103.378 160.72C102.567 160.016 101.575 159.664 100.402 159.664C99.2928 159.664 98.3541 160.005 97.5861 160.688C96.8395 161.349 96.3808 162.277 96.2101 163.472H104.626ZM119.32 174.288C117.869 174.288 116.568 174.032 115.416 173.52C114.264 172.987 113.347 172.272 112.664 171.376C112.003 170.48 111.64 169.488 111.576 168.4H116.088C116.173 169.083 116.504 169.648 117.08 170.096C117.677 170.544 118.413 170.768 119.288 170.768C120.141 170.768 120.803 170.597 121.272 170.256C121.763 169.915 122.008 169.477 122.008 168.944C122.008 168.368 121.709 167.941 121.112 167.664C120.536 167.365 119.608 167.045 118.328 166.704C117.005 166.384 115.917 166.053 115.064 165.712C114.232 165.371 113.507 164.848 112.888 164.144C112.291 163.44 111.992 162.491 111.992 161.296C111.992 160.315 112.269 159.419 112.824 158.608C113.4 157.797 114.211 157.157 115.256 156.688C116.323 156.219 117.571 155.984 119 155.984C121.112 155.984 122.797 156.517 124.056 157.584C125.315 158.629 126.008 160.048 126.136 161.84H121.848C121.784 161.136 121.485 160.581 120.952 160.176C120.44 159.749 119.747 159.536 118.872 159.536C118.061 159.536 117.432 159.685 116.984 159.984C116.557 160.283 116.344 160.699 116.344 161.232C116.344 161.829 116.643 162.288 117.24 162.608C117.837 162.907 118.765 163.216 120.024 163.536C121.304 163.856 122.36 164.187 123.192 164.528C124.024 164.869 124.739 165.403 125.336 166.128C125.955 166.832 126.275 167.771 126.296 168.944C126.296 169.968 126.008 170.885 125.432 171.696C124.877 172.507 124.067 173.147 123 173.616C121.955 174.064 120.728 174.288 119.32 174.288ZM128.822 165.136C128.822 163.301 129.195 161.701 129.942 160.336C130.688 158.949 131.723 157.883 133.046 157.136C134.368 156.368 135.883 155.984 137.59 155.984C139.787 155.984 141.6 156.539 143.03 157.648C144.48 158.736 145.451 160.272 145.942 162.256H141.11C140.854 161.488 140.416 160.891 139.798 160.464C139.2 160.016 138.454 159.792 137.558 159.792C136.278 159.792 135.264 160.261 134.518 161.2C133.771 162.117 133.398 163.429 133.398 165.136C133.398 166.821 133.771 168.133 134.518 169.072C135.264 169.989 136.278 170.448 137.558 170.448C139.371 170.448 140.555 169.637 141.11 168.016H145.942C145.451 169.936 144.48 171.461 143.03 172.592C141.579 173.723 139.766 174.288 137.59 174.288C135.883 174.288 134.368 173.915 133.046 173.168C131.723 172.4 130.688 171.333 129.942 169.968C129.195 168.581 128.822 166.971 128.822 165.136ZM153.704 159.024C154.28 158.085 155.026 157.349 155.944 156.816C156.882 156.283 157.949 156.016 159.144 156.016V160.72H157.96C156.552 160.72 155.485 161.051 154.76 161.712C154.056 162.373 153.704 163.525 153.704 165.168V174H149.224V156.272H153.704V159.024ZM164.433 154.16C163.644 154.16 162.982 153.915 162.449 153.424C161.937 152.912 161.681 152.283 161.681 151.536C161.681 150.789 161.937 150.171 162.449 149.68C162.982 149.168 163.644 148.912 164.433 148.912C165.222 148.912 165.873 149.168 166.385 149.68C166.918 150.171 167.185 150.789 167.185 151.536C167.185 152.283 166.918 152.912 166.385 153.424C165.873 153.915 165.222 154.16 164.433 154.16ZM166.641 156.272V174H162.161V156.272H166.641ZM175.547 158.832C176.123 158.021 176.913 157.349 177.915 156.816C178.939 156.261 180.102 155.984 181.403 155.984C182.918 155.984 184.283 156.357 185.499 157.104C186.737 157.851 187.707 158.917 188.411 160.304C189.137 161.669 189.499 163.259 189.499 165.072C189.499 166.885 189.137 168.496 188.411 169.904C187.707 171.291 186.737 172.368 185.499 173.136C184.283 173.904 182.918 174.288 181.403 174.288C180.102 174.288 178.95 174.021 177.947 173.488C176.966 172.955 176.166 172.283 175.547 171.472V182.448H171.067V156.272H175.547V158.832ZM184.923 165.072C184.923 164.005 184.699 163.088 184.251 162.32C183.825 161.531 183.249 160.933 182.523 160.528C181.819 160.123 181.051 159.92 180.219 159.92C179.409 159.92 178.641 160.133 177.915 160.56C177.211 160.965 176.635 161.563 176.187 162.352C175.761 163.141 175.547 164.069 175.547 165.136C175.547 166.203 175.761 167.131 176.187 167.92C176.635 168.709 177.211 169.317 177.915 169.744C178.641 170.149 179.409 170.352 180.219 170.352C181.051 170.352 181.819 170.139 182.523 169.712C183.249 169.285 183.825 168.677 184.251 167.888C184.699 167.099 184.923 166.16 184.923 165.072ZM197.971 159.952V168.528C197.971 169.125 198.11 169.563 198.387 169.84C198.686 170.096 199.176 170.224 199.859 170.224H201.939V174H199.123C195.347 174 193.459 172.165 193.459 168.496V159.952H191.347V156.272H193.459V151.888H197.971V156.272H201.939V159.952H197.971Z" fill="#424242"/>
<defs>
<filter id="filter0_d_12_150" x="0" y="0" width="234" height="213" filterUnits="userSpaceOnUse" color-interpolation-filters="sRGB">
<feFlood flood-opacity="0" result="BackgroundImageFix"/>
<feColorMatrix in="SourceAlpha" type="matrix" values="0 0 0 0 0 0 0 0 0 0 0 0 0 0 0 0 0 0 127 0" result="hardAlpha"/>
<feOffset dy="4"/>
<feGaussianBlur stdDeviation="4"/>
<feComposite in2="hardAlpha" operator="out"/>
<feColorMatrix type="matrix" values="0 0 0 0 0 0 0 0 0 0 0 0 0 0 0 0 0 0 0.25 0"/>
<feBlend mode="normal" in2="BackgroundImageFix" result="effect1_dropShadow_12_150"/>
<feBlend mode="normal" in="SourceGraphic" in2="effect1_dropShadow_12_150" result="shape"/>
</filter>
<clipPath id="clip0_12_150">
<rect width="99" height="99" fill="white" transform="translate(68 39)"/>
</clipPath>
</defs>
</svg>
