<svg width="33" height="33" viewBox="0 0 33 33" fill="none" xmlns="http://www.w3.org/2000/svg">
<path d="M5.5 27.5C4.74375 27.5 4.09613 27.2305 3.55713 26.6915C3.01813 26.1525 2.74909 25.5053 2.75 24.75V8.25C2.75 7.49375 3.0195 6.84613 3.5585 6.30713C4.0975 5.76813 4.74467 5.49909 5.5 5.5H27.5C28.2563 5.5 28.9039 5.7695 29.4429 6.3085C29.9819 6.8475 30.2509 7.49467 30.25 8.25V24.75C30.25 25.5063 29.9805 26.1539 29.4415 26.6929C28.9025 27.2319 28.2553 27.5009 27.5 27.5H5.5ZM5.5 24.75H19.9375V19.9375H5.5V24.75ZM22.6875 24.75H27.5V12.375H22.6875V24.75ZM5.5 17.1875H19.9375V12.375H5.5V17.1875Z" fill="#424242"/>
</svg>
