<svg width="30" height="30" viewBox="0 0 30 30" fill="none" xmlns="http://www.w3.org/2000/svg">
<circle cx="15" cy="15" r="15" fill="white"/>
<path d="M22 7.91006C21.0832 6.98399 19.9912 6.24973 18.7876 5.75011C17.5841 5.25049 16.2931 4.99552 14.99 5.00006C9.53 5.00006 5.08 9.45006 5.08 14.9101C5.08 16.6601 5.54 18.3601 6.4 19.8601L5 25.0001L10.25 23.6201C11.7 24.4101 13.33 24.8301 14.99 24.8301C20.45 24.8301 24.9 20.3801 24.9 14.9201C24.9 12.2701 23.87 9.78006 22 7.91006ZM14.99 23.1501C13.51 23.1501 12.06 22.7501 10.79 22.0001L10.49 21.8201L7.37 22.6401L8.2 19.6001L8 19.2901C7.17775 17.977 6.74114 16.4593 6.74 14.9101C6.74 10.3701 10.44 6.67006 14.98 6.67006C17.18 6.67006 19.25 7.53006 20.8 9.09006C21.5675 9.85402 22.1757 10.7627 22.5894 11.7635C23.0031 12.7642 23.214 13.8372 23.21 14.9201C23.23 19.4601 19.53 23.1501 14.99 23.1501ZM19.51 16.9901C19.26 16.8701 18.04 16.2701 17.82 16.1801C17.59 16.1001 17.43 16.0601 17.26 16.3001C17.09 16.5501 16.62 17.1101 16.48 17.2701C16.34 17.4401 16.19 17.4601 15.94 17.3301C15.69 17.2101 14.89 16.9401 13.95 16.1001C13.21 15.4401 12.72 14.6301 12.57 14.3801C12.43 14.1301 12.55 14.0001 12.68 13.8701C12.79 13.7601 12.93 13.5801 13.05 13.4401C13.17 13.3001 13.22 13.1901 13.3 13.0301C13.38 12.8601 13.34 12.7201 13.28 12.6001C13.22 12.4801 12.72 11.2601 12.52 10.7601C12.32 10.2801 12.11 10.3401 11.96 10.3301H11.48C11.31 10.3301 11.05 10.3901 10.82 10.6401C10.6 10.8901 9.96 11.4901 9.96 12.7101C9.96 13.9301 10.85 15.1101 10.97 15.2701C11.09 15.4401 12.72 17.9401 15.2 19.0101C15.79 19.2701 16.25 19.4201 16.61 19.5301C17.2 19.7201 17.74 19.6901 18.17 19.6301C18.65 19.5601 19.64 19.0301 19.84 18.4501C20.05 17.8701 20.05 17.3801 19.98 17.2701C19.91 17.1601 19.76 17.1101 19.51 16.9901Z" fill="#6DAFFE"/>
</svg>
