<svg width="30" height="30" viewBox="0 0 30 30" fill="none" xmlns="http://www.w3.org/2000/svg">
<path fill-rule="evenodd" clip-rule="evenodd" d="M15 30C23.2843 30 30 23.2843 30 15C30 6.71573 23.2843 0 15 0C6.71573 0 0 6.71573 0 15C0 23.2843 6.71573 30 15 30ZM24.4446 14.2233C24.4446 10.0561 20.2075 6.6665 15.0001 6.6665C9.79386 6.6665 5.55566 10.0561 5.55566 14.2233C5.55566 17.9587 8.91553 21.0887 13.4548 21.6789C13.7617 21.7441 14.1796 21.8791 14.2859 22.1387C14.3815 22.3738 14.3484 22.7428 14.3166 22.9803L14.182 23.7776L14.1784 23.7986C14.1336 24.05 14.0202 24.6867 15.0001 24.2793C16.0083 23.8603 20.4389 21.1213 22.4199 18.8724C23.7893 17.393 24.4446 15.8914 24.4446 14.2233ZM9.68407 15.6132H11.4844C11.5086 15.6133 11.5325 15.6182 11.5548 15.6274C11.5771 15.6367 11.5973 15.6502 11.6143 15.6672C11.6313 15.6841 11.6447 15.7043 11.6538 15.7263C11.6629 15.7484 11.6676 15.7721 11.6674 15.7959V16.4478C11.6674 16.5479 11.5859 16.6294 11.4844 16.6294H8.83761C8.79011 16.6297 8.74434 16.6118 8.71011 16.5793L8.70775 16.577L8.70539 16.5747V16.5735C8.67351 16.5421 8.65344 16.4967 8.65344 16.4489V12.3912C8.65344 12.3673 8.65821 12.3437 8.66746 12.3217C8.67672 12.2996 8.69028 12.2796 8.70738 12.2628C8.72448 12.2459 8.74479 12.2325 8.76713 12.2234C8.78948 12.2143 8.81342 12.2096 8.83761 12.2096H9.50108C9.54972 12.2099 9.59626 12.2291 9.63054 12.2632C9.66483 12.2972 9.68407 12.3432 9.68407 12.3912V15.6132ZM12.288 12.2628C12.3225 12.2287 12.3694 12.2096 12.4182 12.2096H13.0817C13.1303 12.2099 13.1769 12.2291 13.2112 12.2632C13.2455 12.2972 13.2647 12.3432 13.2647 12.3912V16.4489C13.2647 16.5479 13.1832 16.6294 13.0817 16.6294H12.4182C12.3167 16.6294 12.2341 16.549 12.2341 16.4489V12.3912C12.2341 12.343 12.2535 12.2968 12.288 12.2628ZM16.8485 12.2628C16.883 12.2287 16.9299 12.2096 16.9787 12.2096H17.641C17.6899 12.2096 17.7367 12.2287 17.7712 12.2628C17.8058 12.2968 17.8252 12.343 17.8252 12.3912V16.4501C17.8252 16.549 17.7425 16.6305 17.6398 16.6305H16.9787C16.9627 16.6302 16.9469 16.6279 16.9315 16.6235H16.928C16.924 16.6225 16.92 16.6213 16.9162 16.62L16.9102 16.6177L16.902 16.6142C16.8987 16.6129 16.8956 16.6113 16.8925 16.6096L16.8878 16.6072L16.876 16.6003L16.8748 16.5991C16.8569 16.5872 16.8414 16.5722 16.8288 16.5549L14.9399 14.0406V16.4501C14.9399 16.549 14.8573 16.6305 14.7546 16.6305H14.0934C13.9919 16.6305 13.9093 16.5502 13.9093 16.4501V12.3923C13.9096 12.3444 13.9291 12.2985 13.9636 12.2647C13.9981 12.2309 14.0448 12.2119 14.0934 12.2119H14.7711L14.7734 12.2131H14.7782L14.7817 12.2142H14.7888L14.7994 12.2166L14.803 12.2177H14.8053C14.8093 12.2187 14.8133 12.2198 14.8171 12.2212L14.8218 12.2235L14.8337 12.2282L14.8372 12.2305H14.8396L14.849 12.2363C14.8501 12.2369 14.8512 12.2374 14.8522 12.238C14.8531 12.2386 14.854 12.2392 14.8549 12.2398L14.8584 12.2422L14.8643 12.2468H14.8655C14.8701 12.25 14.8745 12.2535 14.8785 12.2573L14.8821 12.2608C14.8846 12.263 14.887 12.2653 14.8894 12.2677C14.8909 12.2693 14.8924 12.2708 14.8939 12.2724V12.2736C14.8993 12.2791 14.9044 12.2849 14.9092 12.2911L16.7946 14.8007V12.3912C16.7946 12.343 16.814 12.2968 16.8485 12.2628ZM21.4825 12.3923V13.0442H21.4814C21.4814 13.1443 21.3999 13.2258 21.2984 13.2258H19.498V13.9114H21.2984C21.3226 13.9115 21.3465 13.9164 21.3688 13.9256C21.391 13.9349 21.4113 13.9484 21.4283 13.9654C21.4452 13.9823 21.4587 14.0025 21.4678 14.0245C21.4769 14.0466 21.4815 14.0703 21.4814 14.0941V14.746C21.4814 14.8461 21.3999 14.9276 21.2984 14.9276H19.498V15.6132H21.2996C21.3237 15.6133 21.3477 15.6182 21.3699 15.6274C21.3922 15.6367 21.4124 15.6502 21.4294 15.6672C21.4464 15.6841 21.4599 15.7043 21.469 15.7263C21.4781 15.7484 21.4827 15.7721 21.4825 15.7959V16.4478C21.4825 16.5479 21.4011 16.6294 21.2996 16.6294H18.6527C18.6053 16.6296 18.5596 16.6117 18.5252 16.5793L18.5229 16.577L18.5205 16.5735C18.4887 16.5421 18.4686 16.4967 18.4686 16.4489V12.3912C18.4689 12.3446 18.4876 12.3 18.5205 12.2666L18.5229 12.2631L18.5241 12.2608H18.5252C18.5594 12.228 18.6051 12.2096 18.6527 12.2096H21.2996C21.3237 12.2097 21.3477 12.2146 21.3699 12.2238C21.3922 12.2331 21.4124 12.2466 21.4294 12.2636C21.4464 12.2806 21.4599 12.3007 21.469 12.3227C21.4781 12.3448 21.4827 12.3685 21.4825 12.3923Z" fill="white"/>
</svg>
